<svg width="398" height="85" viewBox="0 0 398 85" fill="none" xmlns="http://www.w3.org/2000/svg">
<g clip-path="url(#clip0_2304_5885)">
<path d="M18.4965 64.5373L15.372 71.8979L14.8428 79.1474H22.0922L23.5035 78.3524L27.5898 78.4949L27.6526 80.4281H35.2476L35.7937 78.4949H41.5305C41.5305 78.4949 39.9235 64.3609 37.1808 62.4712C26.7682 69.5467 18.4941 64.5445 18.4941 64.5445" fill="white"/>
<path d="M37.3215 72.7896L37.7444 78.1759H35.7314L37.3215 72.7896Z" fill="#2494D1"/>
<path d="M17.4189 66.567C17.4189 66.567 23.7211 70.3319 31.2775 66.567C37.3187 63.5633 18.4967 64.5372 18.4967 64.5372L17.4189 66.567Z" fill="#2494D1"/>
<path d="M41.5766 81.4743H35.417L35.7915 78.4851H41.5307C41.5307 78.4851 41.5911 80.5005 41.5815 81.4743" fill="#EB2126"/>
<path d="M41.5766 82.4384H35.4169C35.2796 82.4394 35.1437 82.4111 35.0181 82.3555C34.8926 82.2998 34.7804 82.218 34.6889 82.1156C34.5975 82.0132 34.5289 81.8924 34.4878 81.7614C34.4466 81.6304 34.4339 81.4921 34.4503 81.3558L34.8322 78.3763C34.8617 78.1414 34.9765 77.9256 35.1547 77.7697C35.3328 77.6138 35.562 77.5287 35.7987 77.5305H41.5306C41.7817 77.5304 42.0229 77.6279 42.2033 77.8025C42.3837 77.977 42.4891 78.2148 42.4972 78.4657C42.4972 78.4657 42.5577 80.5076 42.548 81.4936C42.5423 81.747 42.4373 81.988 42.2556 82.1647C42.0739 82.3415 41.83 82.4397 41.5766 82.4384ZM36.5019 80.5052H40.61C40.61 80.1452 40.5955 79.7803 40.5882 79.4468H36.6445L36.5019 80.5052Z" fill="#144A8F"/>
<path d="M39.4766 63.2033C39.4766 63.2033 43.7417 57.5657 50.4329 59.1364C57.1242 60.7071 58.8713 56.7393 58.8713 56.7393C58.8713 56.7393 55.5462 68.9087 47.0305 65.5522C47.0305 65.5522 48.3378 66.6493 49.5437 67.7053C46.9894 69.5394 44.672 70.6292 40.0879 67.8696" fill="#2494D1"/>
<path d="M39.3096 63.5851C39.3096 63.5851 43.2219 57.8363 48.7 59.117C54.1782 60.3978 57.4791 59.0445 57.4791 59.0445C57.4791 59.0445 53.6659 66.8546 47.5715 63.2444C46.5107 62.4856 45.0898 62.6548 44.3963 63.6214C43.7027 64.588 44 65.9895 45.0608 66.7483C43.4563 67.3984 41.3201 66.5695 40.1747 65.8059" fill="white"/>
<path d="M20.2657 65.3538C20.2657 65.3538 20.935 63.6309 18.4992 64.5371C16.0634 65.4432 14.4902 79.1786 14.4902 79.1786H15.5825C16.1818 79.1786 17.3852 79.065 17.3441 78.4681C17.3441 78.4681 17.419 74.4084 17.7018 72.1442C18.2672 70.0636 20.2657 65.3538 20.2657 65.3538Z" fill="#2494D1"/>
<path d="M49.5648 32.8932C49.5648 46.0123 39.1087 66.5694 26.2119 66.5694C13.3151 66.5694 2.86621 46.0123 2.86621 32.8932C2.86621 19.774 13.3224 14.5278 26.2192 14.5278C39.116 14.5278 49.5721 19.7837 49.5721 32.8932" fill="white"/>
<path d="M26.2127 67.5336C12.7891 67.5336 1.90039 46.5729 1.90039 32.8932C1.90039 20.6029 10.7641 13.5613 26.2199 13.5613C41.6758 13.5613 50.5371 20.6126 50.5371 32.8932C50.5298 46.5729 39.6363 67.5336 26.2127 67.5336ZM26.2127 15.4824C19.4803 15.4824 3.82392 17.1739 3.82392 32.8932C3.82392 45.5121 14.0698 65.6052 26.2127 65.6052C38.3555 65.6052 48.6014 45.5121 48.6014 32.8932C48.6014 17.1788 32.9426 15.4824 26.2127 15.4824Z" fill="#144A8F"/>
<path d="M6.20602 30.7063C6.20602 30.7063 3.91035 31.0736 2.78185 30.6048C1.2643 29.9741 3.72912 28.0796 3.72912 28.0796L6.20602 30.7063Z" fill="#2494D1"/>
<path d="M31.8281 28.2584C31.8281 31.1823 29.8949 32.1586 26.2702 33.536C22.1621 33.536 13.876 31.1823 13.876 28.2584C13.876 25.3344 22.9233 22.9614 27.0314 22.9614C31.1394 22.9614 31.8208 25.332 31.8208 28.2584" fill="#2494D1"/>
<path d="M29.7377 54.5884C29.7377 54.5884 28.4618 49.2721 32.4586 47.4863C31.7023 49.5307 30.1436 53.9673 31.1199 55.5332C32.0962 57.0991 29.7377 54.5884 29.7377 54.5884Z" fill="#2494D1"/>
<path d="M26.2127 67.5336C12.7891 67.5336 1.90039 46.5729 1.90039 32.8932C1.90039 20.6029 10.7641 13.5613 26.2199 13.5613C41.6758 13.5613 50.5371 20.6126 50.5371 32.8932C50.5298 46.5729 39.6363 67.5336 26.2127 67.5336ZM26.2127 15.4824C19.4803 15.4824 3.82392 17.1739 3.82392 32.8932C3.82392 45.5121 14.0698 65.6052 26.2127 65.6052C38.3555 65.6052 48.6014 45.5121 48.6014 32.8932C48.6014 17.1788 32.9426 15.4824 26.2127 15.4824Z" fill="#144A8F"/>
<path d="M18.7383 37.4846C18.7383 37.4846 20.0432 43.0425 28.7667 43.8762C29.3515 43.9318 29.6971 43.2141 29.3829 42.7187C28.9721 42.0687 27.6624 41.0151 27.643 40.1524C29.5762 40.3771 32.7177 41.3147 34.3705 40.4206C34.4839 40.3584 34.5778 40.2659 34.6415 40.1533C34.7052 40.0408 34.7363 39.9127 34.7313 39.7834C34.7263 39.6542 34.6853 39.5289 34.6131 39.4216C34.5408 39.3144 34.4401 39.2294 34.3222 39.1761C33.2517 38.6928 33.3049 36.8901 32.8095 35.967" fill="#2494D1"/>
<path d="M18.9971 35.7182C18.9971 35.7182 19.7486 41.844 30.6131 41.0538C29.9679 40.2177 29.2817 39.3212 29.2527 38.1033C31.4082 38.3449 34.1315 38.4102 35.5041 36.8032C34.2234 36.5785 32.788 35.595 32.1935 34.481" fill="white"/>
<path d="M28.7231 42.0904C18.9194 42.0904 18.0688 36.1047 18.035 35.8365C18.0202 35.5915 18.0992 35.3501 18.2559 35.1612C18.4126 34.9723 18.6352 34.8501 18.8787 34.8194C19.1222 34.7886 19.3683 34.8517 19.567 34.9957C19.7657 35.1397 19.9022 35.3539 19.9488 35.5949C19.9802 35.8099 20.7293 40.162 28.7255 40.162H28.8367C28.4933 39.5373 28.3036 38.8399 28.2833 38.1273C28.2816 37.9912 28.3088 37.8562 28.3629 37.7313C28.417 37.6064 28.497 37.4943 28.5974 37.4024C28.6998 37.3102 28.8206 37.2409 28.9519 37.1993C29.0832 37.1576 29.2218 37.1445 29.3586 37.1607C31.0985 37.3637 32.4372 37.3178 33.4038 37.0206C32.5472 36.5232 31.8351 35.8111 31.3377 34.9545C31.2471 34.7336 31.2414 34.4871 31.3217 34.2623C31.402 34.0375 31.5626 33.8504 31.7726 33.7369C31.9827 33.6235 32.2273 33.5918 32.4593 33.648C32.6913 33.7041 32.8943 33.8441 33.0293 34.041C33.4739 34.8723 34.6531 35.6939 35.656 35.8703C35.8229 35.9006 35.9789 35.9742 36.1083 36.0839C36.2378 36.1935 36.3361 36.3353 36.3934 36.4949C36.4507 36.6546 36.465 36.8265 36.4348 36.9934C36.4046 37.1604 36.331 37.3164 36.2214 37.4459C34.8416 39.0649 32.517 39.3042 30.4919 39.1978C30.7406 39.6521 31.0319 40.0818 31.3619 40.481C31.4677 40.6192 31.5342 40.7834 31.5545 40.9562C31.5747 41.1291 31.5479 41.3042 31.4768 41.4631C31.4058 41.622 31.2932 41.7587 31.1509 41.8589C31.0086 41.9591 30.8419 42.0191 30.6684 42.0324C29.9901 42.0726 29.3417 42.092 28.7231 42.0904Z" fill="#144A8F"/>
<path d="M33.4259 27.183C33.4259 29.0921 30.1975 32.6032 26.2127 32.6032C22.2279 32.6032 18.9971 29.0921 18.9971 27.183C18.9971 25.274 21.8848 0.966553 25.872 0.966553C29.8592 0.966553 33.4259 25.2764 33.4259 27.183Z" fill="white"/>
<path d="M26.212 33.5699C21.7754 33.5699 18.0322 29.6479 18.0322 27.1831C18.0322 26.9052 20.4705 0 25.8713 0C31.3374 0 34.3918 26.9124 34.3918 27.1831C34.3918 29.6479 30.656 33.5699 26.212 33.5699ZM25.8713 1.93077C23.3944 1.93077 19.963 23.3844 19.963 27.1831C19.963 28.4759 22.667 31.6391 26.212 31.6391C29.757 31.6391 32.4611 28.4759 32.4611 27.1831C32.4611 26.3228 31.5718 19.8031 30.1992 13.5686C27.7054 2.257 25.8882 1.93077 25.8713 1.93077Z" fill="#144A8F"/>
<path d="M30.5474 61.3788C30.6489 61.8911 29.808 61.3522 28.938 61.5237C28.0681 61.6953 27.4881 62.5145 27.3963 62.007C27.3045 61.4996 27.8168 60.4291 28.6867 60.2551C29.5567 60.0811 30.4459 60.8689 30.5474 61.3836" fill="#144A8F"/>
<path d="M21.9566 61.3788C21.8551 61.8911 22.696 61.3522 23.566 61.5237C24.4359 61.6953 25.0159 62.5145 25.1077 62.007C25.1995 61.4996 24.6872 60.4291 23.8173 60.2551C22.9473 60.0811 22.0581 60.8689 21.9566 61.3836" fill="#144A8F"/>
<path d="M12.7747 19.2982C12.7747 19.2982 7.07174 16.4757 1.79896 16.814C-0.0738214 22.2342 2.07202 27.6544 6.14864 29.7664" fill="white"/>
<path d="M6.13618 30.7329C5.98147 30.7322 5.82911 30.6949 5.69155 30.6241C1.01081 28.1907 -1.05529 22.1181 0.885152 16.4973C0.947508 16.3177 1.06147 16.1604 1.21277 16.0452C1.36407 15.93 1.54599 15.862 1.73576 15.8497C7.21635 15.4872 12.9603 18.3121 13.202 18.4329C13.4168 18.5547 13.577 18.754 13.6495 18.9901C13.722 19.2261 13.7014 19.481 13.592 19.7023C13.4825 19.9237 13.2925 20.0948 13.0609 20.1805C12.8293 20.2662 12.5737 20.26 12.3466 20.1632C12.2958 20.139 7.27193 17.6983 2.51387 17.7467C1.22829 22.2897 2.91259 27.0042 6.58082 28.9108C6.7716 29.0112 6.92336 29.1725 7.01197 29.369C7.10058 29.5655 7.12095 29.786 7.06984 29.9955C7.01874 30.2049 6.89909 30.3912 6.72991 30.5248C6.56074 30.6585 6.35175 30.7317 6.13618 30.7329Z" fill="#144A8F"/>
<path d="M3.65169 20.4314C3.52362 21.2385 3.68794 24.6168 6.69405 26.9825C6.71796 27.008 6.75014 27.0241 6.78485 27.0281C6.81955 27.032 6.85454 27.0235 6.88356 27.0041C6.91258 26.9846 6.93375 26.9555 6.9433 26.9219C6.95285 26.8883 6.95016 26.8524 6.9357 26.8206C6.74625 26.2974 6.62207 25.7528 6.56598 25.1991C6.56359 25.1666 6.57041 25.134 6.58565 25.1052C6.60089 25.0763 6.62394 25.0523 6.65216 25.0359C6.68039 25.0196 6.71266 25.0114 6.74527 25.0125C6.77789 25.0136 6.80955 25.0238 6.83662 25.0421C7.1121 25.2281 7.45041 25.3586 8.10528 25.2209C8.15415 25.2103 8.19986 25.1884 8.23871 25.1569C8.27755 25.1254 8.30846 25.0853 8.32892 25.0396C8.34938 24.994 8.35883 24.9442 8.3565 24.8943C8.35417 24.8443 8.34013 24.7956 8.31551 24.7521C8.16792 24.5328 8.06526 24.2864 8.01345 24.0271C8.00701 23.9832 8.01036 23.9383 8.02325 23.8958C8.03614 23.8532 8.05827 23.814 8.08804 23.781C8.11781 23.748 8.15451 23.722 8.1955 23.7048C8.23649 23.6876 8.28077 23.6797 8.32518 23.6816C9.4706 23.7227 10.3647 23.8652 11.08 23.3529" fill="#2494D1"/>
<path d="M10.6674 22.628C8.68977 21.7027 6.60065 21.0375 4.45215 20.6489L10.6674 22.628Z" fill="white"/>
<path d="M10.6667 23.5921C10.5186 23.5913 10.3725 23.5574 10.239 23.4931C8.34514 22.61 6.34562 21.9741 4.2896 21.6009C4.04566 21.549 3.83125 21.4047 3.69119 21.1983C3.55114 20.9919 3.49628 20.7394 3.5381 20.4935C3.57991 20.2476 3.71516 20.0274 3.91556 19.8789C4.11596 19.7304 4.366 19.6652 4.61341 19.6967C6.85484 20.099 9.03378 20.7936 11.0944 21.7628C11.2878 21.8606 11.4428 22.0204 11.5344 22.2168C11.6261 22.4132 11.6491 22.6346 11.5997 22.8456C11.5504 23.0566 11.4316 23.2449 11.2624 23.3803C11.0932 23.5157 10.8834 23.5903 10.6667 23.5921Z" fill="#144A8F"/>
<path d="M39.6484 19.2982C39.6484 19.2982 45.3538 16.4757 50.6266 16.814C52.4993 22.2342 50.3535 27.6544 46.2769 29.7664" fill="white"/>
<path d="M46.2889 30.7329C46.0731 30.7322 45.8637 30.6594 45.6941 30.526C45.5246 30.3925 45.4045 30.2062 45.3531 29.9966C45.3017 29.7871 45.3218 29.5663 45.4104 29.3696C45.499 29.1728 45.6508 29.0113 45.8418 28.9109C49.5052 27.0043 51.1967 22.2897 49.9112 17.7515C45.1241 17.6742 40.1292 20.139 40.0809 20.1632C39.8537 20.26 39.5981 20.2662 39.3665 20.1805C39.1349 20.0948 38.9449 19.9237 38.8355 19.7024C38.726 19.481 38.7055 19.2261 38.778 18.9901C38.8505 18.754 39.0106 18.5547 39.2255 18.433C39.4671 18.3146 45.2256 15.4994 50.6941 15.8497C50.8839 15.8621 51.0658 15.9301 51.2171 16.0453C51.3684 16.1605 51.4824 16.3177 51.5447 16.4974C53.4779 22.1181 51.4191 28.1908 46.7359 30.6242C46.5978 30.6959 46.4444 30.7332 46.2889 30.7329Z" fill="#144A8F"/>
<path d="M48.7799 20.4314C48.9079 21.2385 48.7436 24.6168 45.7375 26.9825C45.7136 27.008 45.6814 27.0241 45.6467 27.0281C45.612 27.032 45.577 27.0235 45.548 27.0041C45.519 26.9846 45.4978 26.9555 45.4882 26.9219C45.4787 26.8883 45.4814 26.8524 45.4958 26.8206C45.6842 26.297 45.8083 25.7526 45.8656 25.1991C45.868 25.1666 45.8611 25.134 45.8459 25.1052C45.8307 25.0763 45.8076 25.0523 45.7794 25.0359C45.7512 25.0196 45.7189 25.0114 45.6863 25.0125C45.6537 25.0136 45.622 25.0238 45.5949 25.0421C45.3194 25.2281 44.9811 25.3586 44.3263 25.2209C44.2774 25.2103 44.2317 25.1884 44.1928 25.1569C44.154 25.1254 44.1231 25.0853 44.1026 25.0396C44.0822 24.994 44.0727 24.9442 44.075 24.8943C44.0774 24.8443 44.0914 24.7956 44.116 24.7521C44.2626 24.5322 44.3652 24.286 44.4181 24.0271C44.4245 23.9832 44.4212 23.9383 44.4083 23.8958C44.3954 23.8532 44.3733 23.814 44.3435 23.781C44.3137 23.748 44.277 23.722 44.236 23.7048C44.1951 23.6876 44.1508 23.6797 44.1064 23.6816C42.9609 23.7227 42.0668 23.8652 41.3516 23.3529" fill="#2494D1"/>
<path d="M41.7549 22.628C43.7332 21.7025 45.8232 21.0372 47.9725 20.6489L41.7549 22.628Z" fill="white"/>
<path d="M41.7577 23.5921C41.5408 23.5908 41.3306 23.5166 41.161 23.3814C40.9914 23.2462 40.8722 23.0579 40.8225 22.8468C40.7729 22.6357 40.7957 22.414 40.8873 22.2174C40.9789 22.0208 41.1339 21.8607 41.3275 21.7628C43.3897 20.7931 45.5703 20.0985 47.8134 19.6967C48.0608 19.6652 48.3108 19.7304 48.5112 19.8789C48.7116 20.0274 48.8469 20.2476 48.8887 20.4935C48.9305 20.7394 48.8757 20.9919 48.7356 21.1983C48.5955 21.4047 48.3811 21.549 48.1372 21.6009C46.0805 21.9743 44.0802 22.6102 42.1854 23.4931C42.052 23.5575 41.9058 23.5913 41.7577 23.5921Z" fill="#144A8F"/>
<path d="M45.3175 52.8245C42.8599 58.1408 38.0221 61.1324 34.511 59.511C30.9998 57.8895 30.1468 52.2615 32.6019 46.9452C35.0571 41.6289 39.8973 38.6349 43.4085 40.2588C46.9196 41.8827 47.7751 47.5083 45.3175 52.8245Z" fill="white"/>
<path d="M36.5698 60.9197C35.7198 60.9236 34.8793 60.7413 34.1074 60.3857C32.1041 59.4602 30.775 57.4617 30.3642 54.7577C29.9752 52.201 30.4609 49.2819 31.7271 46.5416C34.4046 40.742 39.8296 37.5426 43.8096 39.384C47.7895 41.2253 48.8649 47.4381 46.1898 53.228C44.9211 55.9683 43.0121 58.2277 40.8131 59.5882C39.3898 60.4727 37.9399 60.9197 36.5698 60.9197ZM41.3786 40.7904C38.6069 40.7904 35.2963 43.4195 33.4791 47.3511C32.3699 49.7531 31.9398 52.2808 32.2708 54.4677C32.5801 56.5096 33.5202 57.9909 34.9145 58.6337C36.3088 59.2765 38.0559 59.0349 39.8006 57.9474C41.6806 56.7827 43.3287 54.8205 44.4379 52.4185C46.6296 47.6774 45.9723 42.5109 43.0025 41.1359C42.4928 40.9039 41.9386 40.786 41.3786 40.7904Z" fill="#144A8F"/>
<path d="M40.3799 49.8738C40.3804 50.6973 40.1367 51.5025 39.6796 52.1874C39.2225 52.8724 38.5725 53.4064 37.8119 53.722C37.0513 54.0376 36.2142 54.1205 35.4064 53.9603C34.5987 53.8001 33.8566 53.404 33.2739 52.8221C32.6913 52.2401 32.2943 51.4985 32.1332 50.6909C31.9721 49.8833 32.0541 49.0461 32.3687 48.2851C32.6834 47.5242 33.2167 46.8736 33.9012 46.4157C34.5856 45.9578 35.3904 45.7131 36.2139 45.7126C37.3176 45.7133 38.3759 46.1518 39.1565 46.932C39.9371 47.7122 40.3762 48.7702 40.3775 49.8738" fill="#144A8F"/>
<path d="M7.10773 52.8245C9.56289 58.1408 14.4007 61.1324 17.9119 59.511C21.423 57.8895 22.2785 52.2615 19.8209 46.9452C17.3633 41.6289 12.5328 38.6373 9.01434 40.2612C5.49594 41.8851 4.65016 47.5107 7.10773 52.827" fill="white"/>
<path d="M15.8528 60.9198C14.4826 60.9198 13.0327 60.4727 11.607 59.5883C9.40798 58.2278 7.49896 55.9635 6.2303 53.2281C3.55525 47.4285 4.62092 41.2278 8.61054 39.384C12.6002 37.5402 18.0204 40.7517 20.693 46.5416C21.9592 49.2819 22.4425 52.2011 22.0535 54.7577C21.6427 57.4618 20.3136 59.4602 18.3127 60.3857C17.5415 60.7409 16.7019 60.9232 15.8528 60.9198ZM11.0464 40.7904C10.4855 40.7854 9.93042 40.9034 9.42007 41.136C6.4502 42.5109 5.79533 47.6774 7.98226 52.4185C9.09142 54.8205 10.7395 56.7827 12.6219 57.9475C14.3787 59.0446 16.1137 59.2862 17.5081 58.6338C18.9024 57.9813 19.84 56.5097 20.1517 54.4677C20.4828 52.2808 20.055 49.7532 18.9434 47.3512C17.1238 43.4195 13.8181 40.7904 11.0464 40.7904Z" fill="#144A8F"/>
<path d="M7.10773 52.8245C9.56289 58.1408 14.4007 61.1324 17.9119 59.511C21.423 57.8895 22.2785 52.2615 19.8209 46.9452C17.3633 41.6289 12.5328 38.6373 9.01434 40.2612C5.49594 41.8851 4.65016 47.5107 7.10773 52.827" fill="white"/>
<path d="M15.8528 60.9198C14.4826 60.9198 13.0327 60.4727 11.607 59.5883C9.40798 58.2278 7.49896 55.9635 6.2303 53.2281C3.55525 47.4285 4.62092 41.2278 8.61054 39.384C12.6002 37.5402 18.0204 40.7517 20.693 46.5416C21.9592 49.2819 22.4425 52.2011 22.0535 54.7577C21.6427 57.4618 20.3136 59.4602 18.3127 60.3857C17.5415 60.7409 16.7019 60.9232 15.8528 60.9198ZM11.0464 40.7904C10.4855 40.7854 9.93042 40.9034 9.42007 41.136C6.4502 42.5109 5.79533 47.6774 7.98226 52.4185C9.09142 54.8205 10.7395 56.7827 12.6219 57.9475C14.3787 59.0446 16.1137 59.2862 17.5081 58.6338C18.9024 57.9813 19.84 56.5097 20.1517 54.4677C20.4828 52.2808 20.055 49.7532 18.9434 47.3512C17.1238 43.4195 13.8181 40.7904 11.0464 40.7904Z" fill="#144A8F"/>
<path d="M12.0498 49.8738C12.0493 50.6974 12.2931 51.5027 12.7503 52.1877C13.2075 52.8727 13.8576 53.4067 14.6184 53.7222C15.3792 54.0377 16.2164 54.1205 17.0242 53.9602C17.832 53.7998 18.5741 53.4034 19.1567 52.8212C19.7392 52.239 20.136 51.4971 20.2968 50.6894C20.4577 49.8817 20.3754 49.0444 20.0603 48.2835C19.7453 47.5225 19.2116 46.8721 18.5268 46.4145C17.8421 45.9569 17.037 45.7126 16.2134 45.7126C15.1096 45.7126 14.0509 46.151 13.2702 46.9313C12.4894 47.7116 12.0504 48.77 12.0498 49.8738Z" fill="#144A8F"/>
<path d="M20.3888 49.8738C20.3892 50.6975 20.1454 51.5029 19.6881 52.1879C19.2307 52.873 18.5805 53.407 17.8196 53.7225C17.0587 54.0379 16.2213 54.1206 15.4135 53.96C14.6056 53.7994 13.8635 53.4028 13.281 52.8204C12.6986 52.2379 12.302 51.4958 12.1414 50.6879C11.9808 49.8801 12.0635 49.0427 12.3789 48.2818C12.6944 47.5209 13.2284 46.8707 13.9135 46.4133C14.5985 45.956 15.4039 45.7122 16.2276 45.7126C17.331 45.7133 18.389 46.1519 19.1693 46.9321C19.9495 47.7124 20.3881 48.7704 20.3888 49.8738Z" fill="#144A8F"/>
<path d="M20.3642 47.687C20.3642 48.1649 20.2225 48.6321 19.957 49.0295C19.6915 49.4269 19.314 49.7367 18.8725 49.9195C18.4309 50.1024 17.9451 50.1503 17.4763 50.0571C17.0076 49.9638 16.577 49.7337 16.239 49.3957C15.9011 49.0578 15.6709 48.6272 15.5777 48.1584C15.4844 47.6897 15.5323 47.2038 15.7152 46.7623C15.8981 46.3207 16.2078 45.9433 16.6052 45.6778C17.0026 45.4122 17.4698 45.2705 17.9477 45.2705C18.5886 45.2705 19.2033 45.5251 19.6565 45.9783C20.1096 46.4315 20.3642 47.0461 20.3642 47.687Z" fill="white"/>
<path d="M21.1695 59.1436C20.5662 59.8922 20.2654 60.8396 20.3262 61.7991C20.387 62.7586 20.8052 63.6605 21.4981 64.3269C22.513 65.2935 24.7338 65.8662 25.872 65.9653C25.872 65.9653 17.5737 65.4192 14.7803 61.3257C15.9885 60.0787 19.13 58.3824 20.0676 57.1862C21.0052 55.9901 22.9939 53.6654 24.3182 54.8301" fill="#2494D1"/>
<path d="M22.9986 54.5209C22.9986 54.5209 24.5838 45.4929 17.6992 42.9097C19.1829 46.2517 22.2543 53.5205 20.7827 56.2463C19.311 58.9721 22.9986 54.5209 22.9986 54.5209Z" fill="#2494D1"/>
<path d="M26.2078 67.5336C21.5802 67.5336 16.926 65.0567 12.7455 60.3736C12.6729 60.29 12.6142 60.1954 12.5715 60.0933C10.0874 58.8995 7.73854 56.4685 6.23065 53.2304C3.55559 47.4309 4.62368 41.2277 8.61089 39.384C10.6117 38.4584 12.9968 38.7412 15.3215 40.1814C17.5229 41.5419 19.4295 43.8061 20.6982 46.5416C21.9402 49.2311 22.3752 52.0125 22.0852 54.4049C23.2335 53.3372 24.7508 52.756 26.3184 52.7835C27.8861 52.811 29.3821 53.445 30.4922 54.5523L33.9284 57.9692C34.091 58.1532 34.1774 58.3922 34.1701 58.6377C34.1628 58.8831 34.0624 59.1166 33.8892 59.2906C33.716 59.4647 33.4831 59.5664 33.2377 59.575C32.9923 59.5836 32.7529 59.4985 32.568 59.3369L29.1293 55.9176C28.3552 55.146 27.3068 54.7127 26.2138 54.7127C25.1208 54.7127 24.0724 55.146 23.2983 55.9176L19.937 59.2644C19.9065 59.2938 19.8742 59.3212 19.8403 59.3466C19.3939 59.7755 18.8795 60.1274 18.3179 60.3881C17.5782 60.726 16.7751 60.903 15.9618 60.9076C18.5692 63.3241 22.1021 65.6053 26.2078 65.6053C26.4641 65.6053 26.71 65.7071 26.8912 65.8884C27.0725 66.0697 27.1744 66.3155 27.1744 66.5719C27.1744 66.8282 27.0725 67.0741 26.8912 67.2554C26.71 67.4366 26.4641 67.5385 26.2078 67.5385V67.5336ZM7.9826 52.4185C10.213 57.2515 14.4805 60.0329 17.5084 58.6337C20.4783 57.2611 21.1331 52.0947 18.9583 47.3511C17.8491 44.9515 16.2011 42.9869 14.3186 41.8222C12.5618 40.7348 10.8268 40.4931 9.43249 41.1359C6.46263 42.5085 5.80776 47.6773 7.99468 52.4185H7.9826Z" fill="#144A8F"/>
<path d="M45.0075 70.2619C43.5576 70.2619 42.0352 69.8704 40.4162 69.0923C40.196 68.9753 40.0296 68.7778 39.9516 68.541C39.8737 68.3042 39.8902 68.0464 39.9978 67.8215C40.1054 67.5966 40.2958 67.422 40.5291 67.3341C40.7624 67.2463 41.0207 67.252 41.2499 67.35C44.3116 68.8144 46.3728 68.4326 47.9532 67.5917C47.1195 66.8667 46.4333 66.2988 46.4308 66.2988C46.2594 66.1508 46.1454 65.9473 46.1087 65.7238C46.0719 65.5004 46.1149 65.2711 46.23 65.076C46.345 64.8809 46.525 64.7325 46.7383 64.6565C46.9517 64.5806 47.185 64.582 47.3974 64.6605C49.2074 65.3854 50.8216 65.3564 52.3295 64.6025C54.2361 63.6504 55.6183 61.6882 56.5366 59.9314C55.0867 60.4993 53.0351 60.7433 50.2126 60.0836C44.2415 58.6821 40.4065 63.5875 40.247 63.7978C40.0885 63.991 39.8613 64.1153 39.6131 64.1446C39.3649 64.1739 39.1149 64.1059 38.9158 63.9549C38.7166 63.8039 38.5837 63.5816 38.5449 63.3347C38.5061 63.0877 38.5645 62.8354 38.7077 62.6306C38.8986 62.389 43.4344 56.5121 50.6549 58.2036C56.4085 59.552 57.9309 56.4758 57.9937 56.3453C58.0959 56.1258 58.2767 55.9525 58.5004 55.8599C58.7242 55.7673 58.9745 55.762 59.202 55.8451C59.4277 55.9285 59.6143 56.0931 59.7251 56.3067C59.836 56.5203 59.8631 56.7676 59.8013 57.0002C59.7239 57.2853 57.8439 64.008 53.1946 66.3254C52.2927 66.7835 51.3049 67.0477 50.2948 67.1011C50.378 67.2032 50.4394 67.3212 50.4754 67.4479C50.5113 67.5746 50.521 67.7073 50.5038 67.8379C50.4866 67.9685 50.4429 68.0941 50.3754 68.2072C50.3078 68.3203 50.2179 68.4183 50.1112 68.4954C48.4679 69.6771 46.7909 70.2619 45.0075 70.2619Z" fill="#144A8F"/>
<path d="M22.7471 79.8384H14.8428V83.1103H22.7471V79.8384Z" fill="#EB2126"/>
<path d="M34.9918 81.3052H27.0898V84.5771H34.9918V81.3052Z" fill="#EB2126"/>
<path d="M30.91 85.0024C30.6536 85.0024 30.4077 84.9006 30.2265 84.7193C30.0452 84.5381 29.9434 84.2922 29.9434 84.0359V82.7019C29.9434 82.4456 30.0452 82.1997 30.2265 82.0185C30.4077 81.8372 30.6536 81.7354 30.91 81.7354C31.1663 81.7354 31.4122 81.8372 31.5935 82.0185C31.7747 82.1997 31.8766 82.4456 31.8766 82.7019V84.0359C31.8766 84.2922 31.7747 84.5381 31.5935 84.7193C31.4122 84.9006 31.1663 85.0024 30.91 85.0024Z" fill="#144A8F"/>
<path d="M14.9804 79.4832C14.9804 79.4832 16.0727 79.4832 16.9136 79.4349C17.1794 79.4228 17.3703 79.7804 17.2689 80.1091C16.8798 81.3801 17.2157 82.4072 16.9209 82.8035C16.5681 83.2698 14.5986 82.5473 14.5986 82.5473L14.9804 79.4832Z" fill="#A62126"/>
<path d="M26.9766 81.0853C26.9766 81.0853 28.0591 80.9427 28.888 80.7953C29.149 80.7494 29.3713 81.0804 29.323 81.4188C29.0982 82.7285 29.5646 83.7048 29.323 84.1349C29.0306 84.6448 26.9862 84.1736 26.9862 84.1736L26.9766 81.0853Z" fill="#A62126"/>
<path d="M22.6052 25.9628C22.6052 25.9628 26.6504 29.3652 29.4173 28.6209C31.0895 28.169 29.323 31.7623 22.8396 30.861C16.0927 29.9186 19.5894 23.0388 19.5894 23.0388L22.6052 25.9628Z" fill="#EB2126"/>
<path d="M23.4914 18.9138C23.9554 20.0109 27.481 21.6686 29.9338 21.5285C30.0959 21.517 30.2571 21.5603 30.3917 21.6514C30.5262 21.7426 30.6262 21.8763 30.6756 22.0311C31.2628 23.9305 31.2822 26.1174 30.7892 26.997C30.3059 27.8379 19.5429 25.8564 19.4969 21.3182C19.451 16.7801 21.2682 16.6907 21.2682 16.6907L23.4914 18.9138Z" fill="#EB2126"/>
<path d="M23.5616 11.3285C23.9265 12.3748 26.6837 14.0374 28.5396 14.2041C28.7579 14.2247 28.9654 14.3083 29.137 14.4448C29.3086 14.5812 29.4369 14.7646 29.5062 14.9726C29.9895 16.3935 30.1321 17.9279 30.3616 19.3005C30.5066 20.1608 20.3187 18.2711 20.28 13.7426C20.2414 9.21407 21.7299 9.11499 21.7299 9.11499L23.5616 11.3285Z" fill="#EB2126"/>
<path d="M29.6174 27.908C26.5363 27.908 23.7719 26.6152 22.7594 26.0811C20.8818 25.0856 18.8157 23.4979 18.6054 22.0239C18.5832 21.776 18.6574 21.5291 18.8127 21.3346C18.9679 21.1401 19.1921 21.013 19.4387 20.9796C19.6854 20.9463 19.9353 21.0094 20.1366 21.1557C20.3379 21.3021 20.4749 21.5204 20.5193 21.7653C20.5845 22.1447 21.6816 23.3771 23.9193 24.5056C25.142 25.1218 29.4023 26.997 32.8989 25.2475C33.013 25.182 33.1392 25.1404 33.2699 25.1254C33.4006 25.1104 33.5329 25.1222 33.6589 25.1601C33.7848 25.198 33.9017 25.2612 34.0024 25.3459C34.1031 25.4306 34.1854 25.5349 34.2443 25.6524C34.3033 25.77 34.3376 25.8984 34.3453 26.0297C34.3529 26.161 34.3336 26.2925 34.2887 26.4161C34.2437 26.5397 34.174 26.6528 34.0838 26.7486C33.9936 26.8443 33.8848 26.9206 33.7641 26.9728C32.474 27.6046 31.0537 27.9249 29.6174 27.908ZM29.0543 20.6585C27.009 20.6165 25.0043 20.0801 23.2113 19.0951C21.5825 18.2324 19.7823 16.8477 19.6059 15.5477C19.5808 15.2987 19.6533 15.0497 19.8081 14.8531C19.9629 14.6565 20.1879 14.5275 20.4358 14.4934C20.6837 14.4593 20.9352 14.5226 21.1373 14.6701C21.3395 14.8176 21.4766 15.0378 21.5197 15.2843C21.6091 15.6081 22.6627 16.7583 24.7771 17.7225C26.0168 18.288 29.1848 19.46 31.8212 18.1357C32.0478 18.0377 32.3033 18.0301 32.5354 18.1145C32.7674 18.1989 32.9584 18.3689 33.069 18.5896C33.1797 18.8104 33.2017 19.0651 33.1305 19.3015C33.0594 19.5379 32.9004 19.7382 32.6863 19.8611C31.5542 20.406 30.3105 20.679 29.0543 20.6585Z" fill="#144A8F"/>
<path d="M28.5467 9.96072C28.5945 10.1585 28.5642 10.3672 28.462 10.5432C28.3598 10.7192 28.1937 10.849 27.9982 10.9056C27.2475 11.168 26.4611 11.3139 25.6662 11.3381C22.9235 11.4034 21.8047 8.07345 21.8047 8.07345C21.8047 8.07345 22.8752 1.68183 25.282 1.74708C26.0988 1.76883 27.9281 7.38716 28.5467 9.96314" fill="#EB2126"/>
<path d="M26.213 33.5699C21.7763 33.5699 18.0332 29.6479 18.0332 27.1831C18.0332 27.0188 18.9466 16.8816 20.8895 9.03767C20.8991 8.94964 20.921 8.8634 20.9547 8.78152C22.1823 3.91713 23.811 0 25.8723 0C31.3384 0 34.3928 26.9124 34.3928 27.1831C34.3928 29.6479 30.6569 33.5699 26.213 33.5699ZM22.378 11.2681C21.0176 17.551 19.9616 25.0807 19.9616 27.1831C19.9616 28.4759 22.6656 31.6391 26.2106 31.6391C29.7556 31.6391 32.4596 28.4759 32.4596 27.1831C32.4596 26.3228 31.5704 19.8031 30.1978 13.5686C30.1688 13.4308 30.1374 13.2955 30.1084 13.1626C28.2235 13.6459 25.9399 13.3076 23.7675 12.1574C23.2813 11.8986 22.8167 11.6012 22.378 11.2681ZM22.8734 9.09325C23.1513 9.47022 24.1083 10.3015 25.6427 10.8984C26.5417 11.2512 28.1607 11.7151 29.671 11.2898C27.4551 2.20625 25.8868 1.93319 25.8723 1.93319C24.9299 1.93077 23.8497 5.03596 22.8734 9.09083V9.09325Z" fill="#144A8F"/>
<path d="M40.3535 47.687C40.3535 48.1649 40.2118 48.6321 39.9462 49.0295C39.6807 49.4269 39.3033 49.7367 38.8617 49.9195C38.4202 50.1024 37.9343 50.1503 37.4656 50.0571C36.9968 49.9638 36.5662 49.7337 36.2283 49.3957C35.8903 49.0578 35.6602 48.6272 35.5669 48.1584C35.4737 47.6897 35.5216 47.2038 35.7045 46.7623C35.8874 46.3207 36.1971 45.9433 36.5945 45.6778C36.9919 45.4122 37.4591 45.2705 37.937 45.2705C38.5779 45.2705 39.1925 45.5251 39.6457 45.9783C40.0989 46.4315 40.3535 47.0461 40.3535 47.687Z" fill="white"/>
<path d="M26.251 69.9188L26.3356 69.711C27.1837 69.5491 28.4258 70.1121 28.7665 70.9047L29.8516 74.0655C29.9978 74.493 30.0171 74.9538 29.9071 75.3921L28.653 80.4257L28.1818 74.6889L26.251 69.9188Z" fill="#2494D1"/>
<path d="M18.6103 83.9343C18.354 83.9343 18.1081 83.8325 17.9269 83.6512C17.7456 83.47 17.6437 83.2241 17.6437 82.9677V81.7812C17.6437 81.5249 17.7456 81.279 17.9269 81.0977C18.1081 80.9165 18.354 80.8146 18.6103 80.8146C18.8667 80.8146 19.1126 80.9165 19.2938 81.0977C19.4751 81.279 19.5769 81.5249 19.5769 81.7812V82.9677C19.5769 83.2241 19.4751 83.47 19.2938 83.6512C19.1126 83.8325 18.8667 83.9343 18.6103 83.9343ZM22.0901 80.1139H14.8406C14.5843 80.1139 14.3384 80.012 14.1571 79.8307C13.9759 79.6495 13.874 79.4036 13.874 79.1473C13.874 78.8909 13.9759 78.645 14.1571 78.4638C14.3384 78.2825 14.5843 78.1807 14.8406 78.1807H22.0901C22.3464 78.1807 22.5923 78.2825 22.7736 78.4638C22.9548 78.645 23.0567 78.8909 23.0567 79.1473C23.0567 79.4036 22.9548 79.6495 22.7736 79.8307C22.5923 80.012 22.3464 80.1139 22.0901 80.1139Z" fill="#144A8F"/>
<path d="M34.5227 81.3848H27.6502C27.3938 81.3848 27.148 81.283 26.9667 81.1017C26.7854 80.9205 26.6836 80.6746 26.6836 80.4183C26.6836 80.1619 26.7854 79.916 26.9667 79.7348C27.148 79.5535 27.3938 79.4517 27.6502 79.4517H34.5227C34.7791 79.4517 35.0249 79.5535 35.2062 79.7348C35.3875 79.916 35.4893 80.1619 35.4893 80.4183C35.4893 80.6746 35.3875 80.9205 35.2062 81.1017C35.0249 81.283 34.7791 81.3848 34.5227 81.3848Z" fill="#144A8F"/>
<path d="M26.8556 71.1462C27.7424 72.033 29.2866 74.4834 28.6486 75.1189C28.0107 75.7544 25.9905 75.1817 25.1109 74.2949C24.2313 73.408 23.9389 72.2119 24.5768 71.5763C25.8841 72.1152 25.9687 70.2593 26.8556 71.1462Z" fill="#2494D1"/>
<path d="M22.0036 84.0745H14.6284C14.4963 84.0747 14.3654 84.0478 14.2441 83.9954C14.1227 83.9431 14.0134 83.8664 13.9228 83.7701C13.8324 83.6734 13.7628 83.5591 13.7183 83.4344C13.6738 83.3097 13.6554 83.1772 13.6643 83.0451L14.4085 71.8302C14.4154 71.7359 14.4357 71.6432 14.469 71.5547L17.4002 63.7422C17.4987 63.5144 17.6811 63.3333 17.9095 63.2363C18.1379 63.1393 18.3949 63.1339 18.6272 63.2212C18.8595 63.3084 19.0494 63.4817 19.1574 63.7051C19.2655 63.9285 19.2835 64.1849 19.2077 64.4212L16.3272 72.0936L15.6603 82.1462H21.0587L21.1965 75.9116C21.2 75.784 21.2287 75.6583 21.281 75.5419L22.9726 71.7649C23.02 71.643 23.0917 71.5319 23.1833 71.4385C23.2749 71.3451 23.3845 71.2712 23.5055 71.2214C23.6265 71.1716 23.7563 71.1469 23.8872 71.1487C24.018 71.1506 24.1471 71.179 24.2666 71.2322C24.3861 71.2854 24.4936 71.3623 24.5825 71.4583C24.6715 71.5543 24.74 71.6673 24.7839 71.7906C24.8279 71.9138 24.8463 72.0447 24.8382 72.1753C24.8301 72.3059 24.7955 72.4335 24.7366 72.5503L23.1345 76.1484L22.9798 83.1321C22.9735 83.3859 22.8675 83.6271 22.6849 83.8034C22.5022 83.9798 22.2575 84.0771 22.0036 84.0745Z" fill="#144A8F"/>
<path d="M27.5858 78.4851H22.6006V81.4719H27.5858V78.4851Z" fill="#EB2126"/>
<path d="M27.5876 82.4385H22.6023C22.346 82.4385 22.1001 82.3367 21.9189 82.1554C21.7376 81.9741 21.6357 81.7283 21.6357 81.4719V78.4852C21.6357 78.2288 21.7376 77.9829 21.9189 77.8017C22.1001 77.6204 22.346 77.5186 22.6023 77.5186H27.5876C27.8439 77.5186 28.0898 77.6204 28.2711 77.8017C28.4523 77.9829 28.5542 78.2288 28.5542 78.4852V81.4744C28.5535 81.7303 28.4514 81.9755 28.2702 82.1563C28.089 82.337 27.8435 82.4385 27.5876 82.4385ZM23.5665 80.5053H26.621V79.4469H23.5665V80.5053Z" fill="#144A8F"/>
<path d="M34.6898 85.0001H27.3146C27.18 85.0006 27.0468 84.973 26.9235 84.9191C26.8002 84.8652 26.6895 84.7861 26.5985 84.6869C26.5075 84.5877 26.4382 84.4706 26.3951 84.3431C26.3519 84.2156 26.3359 84.0805 26.348 83.9465L27.1914 74.8411L25.4999 71.0014C25.409 70.7685 25.4119 70.5096 25.5079 70.2788C25.6039 70.0481 25.7855 69.8635 26.0146 69.7638C26.2438 69.664 26.5027 69.6569 26.7369 69.744C26.9712 69.831 27.1627 70.0054 27.2711 70.2305L29.0473 74.2974C29.1147 74.449 29.1405 74.6158 29.1222 74.7807L28.3561 83.0814H33.8416L35.4341 72.6905C35.4481 72.5607 35.4882 72.4351 35.5521 72.3212C35.616 72.2074 35.7023 72.1077 35.8058 72.0281C35.9093 71.9485 36.0278 71.8907 36.1542 71.8582C36.2807 71.8257 36.4124 71.8191 36.5414 71.8388C36.6704 71.8586 36.7941 71.9043 36.905 71.9732C37.0159 72.0421 37.1117 72.1327 37.1866 72.2396C37.2616 72.3465 37.314 72.4675 37.3409 72.5952C37.3678 72.723 37.3685 72.8548 37.3431 72.9829L36.2146 80.5175C36.2613 80.515 36.308 80.515 36.3547 80.5175H37.5847C37.6459 80.3205 37.7685 80.1482 37.9346 80.0259C38.1007 79.9036 38.3015 79.8376 38.5078 79.8376C38.7141 79.8376 38.915 79.9036 39.0811 80.0259C39.2471 80.1482 39.3697 80.3205 39.4309 80.5175H40.615C40.4362 66.3738 36.3499 62.5606 36.3064 62.5243C36.1154 62.3555 35.9989 62.118 35.9822 61.8637C35.9654 61.6093 36.0498 61.3587 36.217 61.1662C36.3828 60.976 36.6163 60.8582 36.8678 60.8379C37.1193 60.8175 37.3688 60.8964 37.563 61.0575C37.766 61.2315 42.5506 65.4628 42.5506 81.4817C42.5506 81.738 42.4488 81.9839 42.2675 82.1651C42.0862 82.3464 41.8404 82.4483 41.584 82.4483H36.3451C36.1997 82.4483 36.0561 82.4161 35.9246 82.354L35.6443 84.1905C35.607 84.4167 35.4906 84.6224 35.3157 84.7706C35.1409 84.9189 34.919 85.0002 34.6898 85.0001ZM24.8426 81.9698C24.5862 81.9698 24.3404 81.8679 24.1591 81.6867C23.9778 81.5054 23.876 81.2595 23.876 81.0032V80.793C23.876 80.5366 23.9778 80.2907 24.1591 80.1095C24.3404 79.9282 24.5862 79.8264 24.8426 79.8264C25.0989 79.8264 25.3448 79.9282 25.5261 80.1095C25.7073 80.2907 25.8092 80.5366 25.8092 80.793V81.008C25.8079 81.2635 25.7055 81.5082 25.5244 81.6884C25.3432 81.8686 25.0981 81.9698 24.8426 81.9698Z" fill="#144A8F"/>
<path d="M91.3103 65.7478C91.2825 66.8462 91.4461 67.9411 91.7936 68.9835H92.4944C94.4276 68.9835 103.61 63.1597 103.61 50.4877C103.61 38.5212 94.9278 32.2649 89.2152 32.2649C82.5288 32.2649 76.6495 37.9799 76.6495 48.1703C76.6495 54.6948 79.6145 57.5946 81.0693 57.5946C82.4708 57.5946 82.3645 56.9494 82.7971 56.9494C83.928 56.9494 82.9034 58.7811 81.3472 58.7811C76.6568 58.7811 68.8926 56.4637 68.8926 46.544C68.8926 38.2941 75.1465 29.4521 86.2526 29.4521C99.2461 29.4521 109.492 39.4806 109.492 51.9255C109.492 64.0563 101.619 74.9474 95.9597 74.9474C93.9661 74.9474 91.8106 73.8696 90.3003 72.4656C89.005 72.4125 87.4971 71.9823 86.6344 71.1197C85.2305 69.6698 85.0686 65.9435 85.0686 63.6793C85.0686 56.1882 86.2019 43.6756 89.5439 43.6756C93.3185 43.6756 94.7732 45.401 94.7732 45.9954C94.7732 47.5057 91.3248 48.8952 91.3248 65.7285" fill="white"/>
<path d="M121.033 47.3077C118.931 47.7403 116.925 51.6767 116.925 58.3607C116.925 58.7377 116.981 59.1703 116.981 59.5472C118.274 59.3853 121.572 56.2052 121.572 50.3815C121.606 49.3308 121.422 48.2844 121.033 47.3077ZM129.174 58.1457C129.228 57.6624 129.443 57.4449 129.713 57.4449C130.305 57.4449 131.163 58.4695 131.163 59.6004C131.163 64.675 127.442 71.5692 122.051 71.5692C115.096 71.5692 112.075 65.3154 112.075 58.7377C112.075 49.1418 115.526 45.2054 120.11 45.2054C120.11 43.9126 121.077 43.6951 121.618 43.6951C124.639 43.6951 125.726 45.7998 125.726 50.0045C125.726 56.6354 121.197 61.7027 117.853 61.7027H117.37C118.126 64.2908 119.786 66.8257 123.085 66.8257C126.915 66.8257 128.747 62.4591 129.179 58.1457" fill="white"/>
<path d="M135.366 45.9059C137.468 36.4816 141.19 32.4268 146.313 32.4268C148.468 32.4268 150.409 33.6664 150.409 34.9617C150.409 38.3037 144.263 44.386 143.454 44.386C143.345 44.386 143.292 44.2796 143.292 44.1709C143.292 43.4169 146.743 39.4249 146.743 35.7132C146.743 35.2299 146.528 34.9592 146.098 34.9592C144.749 34.9592 141.89 37.0616 140.221 46.0123C143.94 45.8479 148.359 44.9345 148.63 44.9345C149.06 44.9345 149.386 45.3646 149.386 45.9567C149.386 47.0368 145.017 48.3732 139.735 48.9773C139.156 53.899 138.882 58.8518 138.916 63.8073C138.916 73.1881 140.747 73.7801 140.747 74.9666C140.747 75.4499 140.211 75.7762 139.401 75.7762C136.867 75.7762 133.469 73.9976 133.469 68.7128C133.469 60.8398 133.902 54.4241 134.709 49.3035H134.117C132.667 49.3035 131.313 46.9837 131.313 46.2829C131.313 45.744 132.067 44.6663 132.609 44.6663C132.67 44.6702 132.731 44.6866 132.786 44.7144C132.841 44.7422 132.89 44.7809 132.93 44.8282C133.309 45.2583 132.768 45.6909 135.347 45.9059" fill="white"/>
<path d="M155.556 47.3077C153.453 47.7403 151.448 51.6767 151.448 58.3607C151.448 58.7377 151.503 59.1703 151.503 59.5472C152.796 59.3853 156.094 56.2052 156.094 50.3815C156.128 49.3308 155.945 48.2844 155.556 47.3077ZM163.697 58.1457C163.752 57.6624 163.967 57.4449 164.236 57.4449C164.828 57.4449 165.686 58.4695 165.686 59.6004C165.686 64.675 161.964 71.5692 156.573 71.5692C149.618 71.5692 146.598 65.3154 146.598 58.7377C146.598 49.1418 150.048 45.2054 154.632 45.2054C154.632 43.9126 155.599 43.6951 156.143 43.6951C159.161 43.6951 160.239 45.7998 160.239 50.0045C160.246 56.6281 155.718 61.7027 152.375 61.7027H151.892C152.646 64.2908 154.309 66.8257 157.607 66.8257C161.435 66.8257 163.269 62.4591 163.699 58.1457" fill="white"/>
<path d="M177.338 59.7694C177.338 54.9171 178.787 49.6346 178.787 47.9624C178.787 47.6386 178.734 47.4235 178.572 47.4235C177.606 47.4235 173.935 54.2694 172.319 61.7098C172.263 65.6463 171.995 68.6645 171.995 68.6645C172.157 68.8288 172.263 69.2589 172.263 69.6915C172.263 70.3923 171.995 71.1414 170.97 71.1414C168.921 71.1414 165.361 68.9859 165.361 66.3422C165.361 63.6986 166.811 62.1375 166.811 50.0599C166.811 47.1481 164.709 45.5314 164.709 44.8838C164.709 44.183 165.463 43.5354 166.055 43.5354C166.594 43.5354 167.674 43.5886 168.914 44.8306C170.91 46.8242 171.77 51.1908 172.149 55.6662C174.414 50.275 177.379 44.7751 179.157 44.7751C183.956 44.7751 185.358 47.2568 185.358 48.3877C185.358 50.0068 184.227 57.1765 184.227 62.7296C184.227 66.5573 184.766 69.6311 186.598 69.6311C189.401 69.6311 190.749 58.7955 190.911 57.2296C190.967 56.7463 191.182 56.5289 191.45 56.5289C192.044 56.5289 192.9 57.609 192.9 58.6336V58.8028C192.467 62.9108 191.551 73.3597 185.513 73.3597C180.564 73.35 177.338 67.8501 177.338 59.7694Z" fill="white"/>
<path d="M207.06 57.4979C207.652 57.4979 208.571 58.5756 208.571 59.6558V59.7694C208.3 64.9986 204.202 72.8716 197.409 73.0335H197.3C193.366 73.0335 190.94 70.0684 190.94 66.5621C190.94 65.5955 191.532 64.9986 191.856 64.9986C192.018 64.9986 192.124 65.1074 192.124 65.378C192.124 66.8279 192.989 69.3676 194.768 69.3676C196.655 69.3676 198.003 67.4804 198.003 64.5129C198.003 61.0114 195.63 57.6139 193.634 54.7551L193.311 54.2718C193.042 58.3799 192.663 61.0138 192.663 61.0138C192.663 61.0138 192.663 61.2265 192.395 61.2265C191.747 61.1202 190.616 60.5813 190.616 59.8805V59.7694C190.616 59.7694 191.046 56.5893 191.317 51.0893C191.08 50.6595 190.95 50.1786 190.94 49.6878C190.94 45.1593 195.899 43.4871 197.194 43.4871C198.489 43.4871 199.026 44.0259 199.026 45.2124C199.026 45.4831 198.542 46.7227 198.542 48.3394C198.542 55.1345 204.202 56.5893 204.202 64.6748C204.202 65.4559 204.112 66.2343 203.933 66.9947C205.927 64.5782 206.35 61.0646 206.575 58.1527C206.628 57.6694 206.79 57.5051 207.058 57.5051" fill="white"/>
<path d="M215.3 47.3077C213.198 47.7403 211.192 51.6767 211.192 58.3607C211.192 58.7377 211.248 59.1703 211.248 59.5472C212.541 59.3853 215.839 56.2052 215.839 50.3815C215.874 49.3307 215.69 48.284 215.3 47.3077ZM223.441 58.1457C223.495 57.6624 223.712 57.4449 223.98 57.4449C224.575 57.4449 225.43 58.4695 225.43 59.6004C225.43 64.675 221.709 71.5692 216.318 71.5692C209.363 71.5692 206.345 65.3154 206.345 58.7377C206.345 49.1418 209.793 45.2054 214.377 45.2054C214.377 43.9126 215.344 43.6951 215.887 43.6951C218.906 43.6951 219.996 45.7998 219.996 50.0045C219.996 56.6354 215.465 61.7027 212.123 61.7027H211.639C212.393 64.2908 214.056 66.8257 217.354 66.8257C221.182 66.8257 223.016 62.4591 223.446 58.1457" fill="white"/>
<path d="M262.113 35.9549C262.113 39.9904 260.551 43.7553 259.046 47.3607C258.242 50.7451 257.827 54.2102 257.809 57.6888C257.809 74.6864 261.412 76.5157 263.241 76.5157C263.816 76.5006 264.382 76.3734 264.908 76.1411C264.962 76.1411 265.07 76.3006 265.07 76.3562C265.07 76.8395 264.319 77.8061 263.188 77.8061C257.594 77.8061 252.797 72.9103 252.212 61.2362C248.017 68.7684 243.716 74.9546 242.102 74.9546C239.733 74.9546 233.494 70.1216 233.494 64.6265C233.494 57.9014 237.15 36.2207 238.496 34.8771C238.714 34.6366 238.98 34.445 239.277 34.315C239.574 34.185 239.895 34.1196 240.219 34.1232C242.423 34.1232 244.951 36.8683 244.951 38.3206C244.962 38.4291 244.948 38.5387 244.911 38.6412C244.874 38.7437 244.814 38.8365 244.736 38.9127C242.744 40.8459 238.936 57.3626 238.936 65.4312C238.936 68.0676 239.366 69.7809 240.386 69.7809C243.129 69.7809 248.186 60.9583 252.437 52.1889C253.082 42.883 255.018 31.5327 257.009 31.5327C258.729 31.5327 261.69 32.6081 262.12 35.9428" fill="white"/>
<path d="M276.499 59.7501C276.499 54.9171 277.948 49.637 277.948 47.9697C277.948 47.6483 277.895 47.4308 277.733 47.4308C276.767 47.4308 273.106 54.2622 271.492 61.6881C271.438 65.6173 271.17 68.6283 271.17 68.6283C271.33 68.7902 271.438 69.2203 271.438 69.6504C271.438 70.3512 271.17 71.1003 270.148 71.1003C268.104 71.1003 264.554 68.9496 264.554 66.3132C264.554 63.6769 266.004 62.1182 266.004 50.0672C266.004 47.1674 263.906 45.5483 263.906 44.9031C263.906 44.2048 264.66 43.5596 265.252 43.5596C265.789 43.5596 266.866 43.6127 268.104 44.85C270.092 46.8387 270.955 51.1981 271.33 55.6614C273.589 50.2822 276.549 44.7871 278.338 44.7871C283.125 44.7871 284.521 47.2641 284.521 48.3926C284.521 50.0068 283.393 57.162 283.393 62.703C283.393 66.5211 283.932 69.5876 285.761 69.5876C288.557 69.5876 289.903 58.7762 290.062 57.2152C290.118 56.7319 290.333 56.5168 290.601 56.5168C291.193 56.5168 292.051 57.5921 292.051 58.6143V58.7762C291.621 62.8625 290.708 73.2993 284.681 73.2993C279.732 73.2993 276.506 67.8139 276.506 59.7428" fill="white"/>
<path d="M293.54 33.2822C294.185 32.637 295.799 32.0474 296.606 32.0474C298.489 32.0474 299.564 33.4973 299.564 35.2202C299.558 35.5036 299.443 35.7737 299.243 35.9742C298.435 36.7788 298.167 40.3843 295.799 40.3843C294.777 40.3843 292.626 38.9344 292.626 36.3487C292.626 34.575 292.894 33.9322 293.54 33.2822ZM296.229 71.1558C295.369 71.1558 293.271 70.0781 291.764 68.5726C290.526 67.3354 290.043 62.8697 290.043 58.2977C290.043 53.0249 290.688 47.5926 291.493 46.8411C291.905 46.5156 292.418 46.3446 292.943 46.3578C294.065 46.3881 295.137 46.8282 295.956 47.5951C296.439 48.0784 296.71 48.726 296.71 49.8013C296.71 50.5553 296.333 50.7679 296.333 50.7679C296.333 50.7679 295.417 58.2977 295.417 63.1935C295.417 65.5617 295.632 67.3354 296.277 67.3354C299.344 67.3354 300.144 61.7943 300.422 59.75C300.422 59.5905 300.637 59.4818 300.905 59.4818C301.497 59.4818 302.466 59.9119 302.466 60.5571C302.435 62.0879 302.199 63.6076 301.765 65.0759C300.799 68.3575 298.539 71.1558 296.224 71.1558" fill="white"/>
<path d="M300.366 58.8366C300.366 48.883 305.153 44.9031 310.211 44.9031C313.278 44.9031 315.428 46.4641 315.428 48.883C315.428 52.2661 313.331 56.524 311.716 56.524C311.644 56.5286 311.572 56.5178 311.505 56.4924C311.437 56.4669 311.376 56.4274 311.325 56.3764C311.274 56.3254 311.235 56.2641 311.209 56.1967C311.184 56.1292 311.173 56.0571 311.178 55.9851C311.178 55.8764 311.178 55.7169 311.286 55.6613C311.825 55.0717 312.792 52.8654 312.792 49.5838C312.792 48.0783 312.147 46.8387 311.342 46.8387C309.621 46.8387 305.542 49.9608 305.542 59.5881C305.542 64.7545 308.232 68.3575 311.675 68.3575C316.678 68.3575 317.862 60.342 318.077 58.5128C318.13 58.0295 318.292 57.8144 318.56 57.8144C319.152 57.8144 320.065 58.8897 320.065 59.9651V60.0738C319.691 64.0538 317.862 72.4462 311.19 72.4462C304.518 72.4462 300.378 66.4751 300.378 58.8366" fill="white"/>
<path d="M330.826 53.9409C330.826 53.9409 330.772 54.5861 330.772 55.125C330.761 55.3414 330.779 55.5584 330.826 55.7702V53.9409ZM330.719 50.9275C330.664 49.9054 330.395 48.0785 329.052 48.0785C325.985 48.0785 323.994 55.6614 323.994 61.3692C323.994 64.8127 324.693 67.5554 326.362 67.5554C327.868 67.5554 329.482 63.6286 330.289 59.97C329.105 59.1098 328.245 57.4955 328.245 55.0211C328.245 53.0299 329.373 51.1547 330.719 50.9324V50.9275ZM346.695 66.857C346.695 69.491 347.717 69.8148 348.365 69.8148C350.568 69.8148 352.398 61.1541 352.56 59.4867C352.613 59.0034 352.828 58.7859 353.096 58.7859C353.69 58.7859 354.546 59.7018 354.546 60.7191V60.9777C354.116 64.9601 352.613 72.92 347.555 72.92C342.12 72.92 340.939 68.2948 340.939 64.0442C340.939 59.7405 342.712 52.7471 342.712 51.348C342.712 50.3814 341.852 49.6806 340.779 49.0886C339.701 56.2535 336.101 60.0111 333.032 60.4944C331.957 67.0044 329.211 72.1685 325.782 72.1685C322.716 72.1685 318.035 68.2393 318.035 60.9245C318.035 53.5542 320.725 45.0555 327.126 45.0555C330.461 45.0555 332.561 46.8316 332.561 48.7672C332.561 50.0576 332.343 50.7004 332.022 51.0798C333.153 51.6186 333.527 53.0709 333.527 54.5233C333.527 55.7605 333.474 56.9397 333.368 58.1262C335.572 57.6961 338.423 54.2599 338.853 48.0688C337.403 47.3149 336.055 46.4546 336.055 45.2174C336.055 44.0333 337.94 43.1174 339.392 43.1174C340.359 43.1174 341.113 43.4944 341.113 44.4634C341.113 45.1618 341.113 45.807 341.059 46.3966C343.911 47.4719 348.645 49.4631 348.645 52.8535C348.645 54.6803 346.712 63.9331 346.712 66.8401" fill="white"/>
<path d="M366.668 59.7501C366.668 54.9171 368.117 49.637 368.117 47.9697C368.117 47.6483 368.062 47.4308 367.902 47.4308C366.936 47.4308 363.277 54.2622 361.663 61.6881C361.607 65.6173 361.339 68.6283 361.339 68.6283C361.501 68.7902 361.607 69.2203 361.607 69.6504C361.607 70.3512 361.339 71.1003 360.317 71.1003C358.273 71.1003 354.723 68.9496 354.723 66.3132C354.723 63.6769 356.173 62.1182 356.173 50.0672C356.173 47.1674 354.075 45.5483 354.075 44.9031C354.075 44.2048 354.827 43.5596 355.419 43.5596C355.958 43.5596 357.033 43.6127 358.27 44.85C360.261 46.8387 361.122 51.1981 361.499 55.6614C363.758 50.2822 366.716 44.7871 368.492 44.7871C373.279 44.7871 374.678 47.2641 374.678 48.3926C374.678 50.0068 373.547 57.162 373.547 62.703C373.547 66.5211 374.086 69.5876 375.915 69.5876C378.711 69.5876 380.057 58.7762 380.219 57.2152C380.272 56.7319 380.487 56.5168 380.756 56.5168C381.348 56.5168 382.206 57.5921 382.206 58.6143V58.7762C381.775 62.8625 380.862 73.2993 374.835 73.2993C369.886 73.2993 366.66 67.8139 366.66 59.7428" fill="white"/>
<path d="M396.336 57.4906C396.928 57.4906 397.844 58.5684 397.844 59.6437V59.7501C397.574 64.9673 393.495 72.8233 386.707 72.9852H386.605C382.678 72.9852 380.257 70.025 380.257 66.5283C380.257 65.5617 380.849 64.9673 381.17 64.9673C381.332 64.9673 381.441 65.076 381.441 65.3466C381.441 66.7965 382.301 69.3266 384.077 69.3266C385.96 69.3266 387.303 67.4442 387.303 64.4936C387.303 60.997 384.938 57.6091 382.954 54.7576L382.632 54.2743C382.362 58.363 381.985 60.997 381.985 60.997C381.985 60.997 381.985 61.212 381.717 61.212C381.071 61.1057 379.94 60.5668 379.94 59.8685V59.7597C379.94 59.7597 380.373 56.5869 380.641 51.099C380.405 50.6698 380.275 50.1898 380.264 49.6999C380.264 45.1835 385.213 43.5137 386.504 43.5137C387.794 43.5137 388.333 44.0526 388.333 45.2366C388.333 45.5049 387.85 46.7421 387.85 48.3563C387.85 55.1346 393.499 56.5869 393.499 64.6555C393.499 65.4343 393.408 66.2103 393.229 66.9681C395.22 64.5516 395.645 61.0501 395.865 58.1479C395.918 57.6646 396.08 57.5003 396.348 57.5003" fill="white"/>
<path d="M18.4965 64.5373L15.372 71.8979L14.8428 79.1474H22.0922L23.5035 78.3524L27.5898 78.4949L27.6526 80.4281H35.2476L35.7937 78.4949H41.5305C41.5305 78.4949 39.9235 64.3609 37.1808 62.4712C26.7682 69.5467 18.4941 64.5445 18.4941 64.5445" fill="white"/>
<path d="M37.3215 72.7896L37.7444 78.1759H35.7314L37.3215 72.7896Z" fill="#2494D1"/>
<path d="M17.4189 66.567C17.4189 66.567 23.7211 70.3319 31.2775 66.567C37.3187 63.5633 18.4967 64.5372 18.4967 64.5372L17.4189 66.567Z" fill="#2494D1"/>
<path d="M41.5766 81.4743H35.417L35.7915 78.4851H41.5307C41.5307 78.4851 41.5911 80.5005 41.5815 81.4743" fill="#EB2126"/>
<path d="M41.5766 82.4384H35.4169C35.2796 82.4394 35.1437 82.4111 35.0181 82.3555C34.8926 82.2998 34.7804 82.218 34.6889 82.1156C34.5975 82.0132 34.5289 81.8924 34.4878 81.7614C34.4466 81.6304 34.4339 81.4921 34.4503 81.3558L34.8322 78.3763C34.8617 78.1414 34.9765 77.9256 35.1547 77.7697C35.3328 77.6138 35.562 77.5287 35.7987 77.5305H41.5306C41.7817 77.5304 42.0229 77.6279 42.2033 77.8025C42.3837 77.977 42.4891 78.2148 42.4972 78.4657C42.4972 78.4657 42.5577 80.5076 42.548 81.4936C42.5423 81.747 42.4373 81.988 42.2556 82.1647C42.0739 82.3415 41.83 82.4397 41.5766 82.4384ZM36.5019 80.5052H40.61C40.61 80.1452 40.5955 79.7803 40.5882 79.4468H36.6445L36.5019 80.5052Z" fill="#144A8F"/>
<path d="M39.4766 63.2033C39.4766 63.2033 43.7417 57.5657 50.4329 59.1364C57.1242 60.7071 58.8713 56.7393 58.8713 56.7393C58.8713 56.7393 55.5462 68.9087 47.0305 65.5522C47.0305 65.5522 48.3378 66.6493 49.5437 67.7053C46.9894 69.5394 44.672 70.6292 40.0879 67.8696" fill="#2494D1"/>
<path d="M38.8994 64.165C38.8994 64.165 43.2225 57.8362 48.7007 59.1169C54.1789 60.3977 57.4798 59.0444 57.4798 59.0444C57.4798 59.0444 53.6666 66.8545 47.5722 63.2443C46.5113 62.4855 45.0905 62.6547 44.3969 63.6213C43.7034 64.5878 44.0006 65.9894 45.0615 66.7482C43.4569 67.3982 41.3207 66.5694 40.1753 65.8058" fill="white"/>
<path d="M20.2657 65.3538C20.2657 65.3538 20.935 63.6309 18.4992 64.5371C16.0634 65.4432 14.4902 79.1786 14.4902 79.1786H15.5825C16.1818 79.1786 17.3852 79.065 17.3441 78.4681C17.3441 78.4681 17.419 74.4084 17.7018 72.1442C18.2672 70.0636 20.2657 65.3538 20.2657 65.3538Z" fill="#2494D1"/>
<path d="M49.5648 32.8932C49.5648 46.0123 39.1087 66.5694 26.2119 66.5694C13.3151 66.5694 2.86621 46.0123 2.86621 32.8932C2.86621 19.774 13.3224 14.5278 26.2192 14.5278C39.116 14.5278 49.5721 19.7837 49.5721 32.8932" fill="white"/>
<path d="M26.2127 67.5336C12.7891 67.5336 1.90039 46.5729 1.90039 32.8932C1.90039 20.6029 10.7641 13.5613 26.2199 13.5613C41.6758 13.5613 50.5371 20.6126 50.5371 32.8932C50.5298 46.5729 39.6363 67.5336 26.2127 67.5336ZM26.2127 15.4824C19.4803 15.4824 3.82392 17.1739 3.82392 32.8932C3.82392 45.5121 14.0698 65.6052 26.2127 65.6052C38.3555 65.6052 48.6014 45.5121 48.6014 32.8932C48.6014 17.1788 32.9426 15.4824 26.2127 15.4824Z" fill="#144A8F"/>
<path d="M6.20602 30.7063C6.20602 30.7063 3.91035 31.0736 2.78185 30.6048C1.2643 29.9741 3.72912 28.0796 3.72912 28.0796L6.20602 30.7063Z" fill="#2494D1"/>
<path d="M31.8281 28.2584C31.8281 31.1823 29.8949 32.1586 26.2702 33.536C22.1621 33.536 13.876 31.1823 13.876 28.2584C13.876 25.3344 22.9233 22.9614 27.0314 22.9614C31.1394 22.9614 31.8208 25.332 31.8208 28.2584" fill="#2494D1"/>
<path d="M29.7377 54.5884C29.7377 54.5884 28.4618 49.2721 32.4586 47.4863C31.7023 49.5307 30.1436 53.9673 31.1199 55.5332C32.0962 57.0991 29.7377 54.5884 29.7377 54.5884Z" fill="#2494D1"/>
<path d="M26.2127 67.5336C12.7891 67.5336 1.90039 46.5729 1.90039 32.8932C1.90039 20.6029 10.7641 13.5613 26.2199 13.5613C41.6758 13.5613 50.5371 20.6126 50.5371 32.8932C50.5298 46.5729 39.6363 67.5336 26.2127 67.5336ZM26.2127 15.4824C19.4803 15.4824 3.82392 17.1739 3.82392 32.8932C3.82392 45.5121 14.0698 65.6052 26.2127 65.6052C38.3555 65.6052 48.6014 45.5121 48.6014 32.8932C48.6014 17.1788 32.9426 15.4824 26.2127 15.4824Z" fill="#144A8F"/>
<path d="M18.7383 37.4846C18.7383 37.4846 20.0432 43.0425 28.7667 43.8762C29.3515 43.9318 29.6971 43.2141 29.3829 42.7187C28.9721 42.0687 27.6624 41.0151 27.643 40.1524C29.5762 40.3771 32.7177 41.3147 34.3705 40.4206C34.4839 40.3584 34.5778 40.2659 34.6415 40.1533C34.7052 40.0408 34.7363 39.9127 34.7313 39.7834C34.7263 39.6542 34.6853 39.5289 34.6131 39.4216C34.5408 39.3144 34.4401 39.2294 34.3222 39.1761C33.2517 38.6928 33.3049 36.8901 32.8095 35.967" fill="#2494D1"/>
<path d="M18.9971 35.7182C18.9971 35.7182 19.7486 41.844 30.6131 41.0538C29.9679 40.2177 29.2817 39.3212 29.2527 38.1033C31.4082 38.3449 34.1315 38.4102 35.5041 36.8032C34.2234 36.5785 32.788 35.595 32.1935 34.481" fill="white"/>
<path d="M28.7231 42.0904C18.9194 42.0904 18.0688 36.1047 18.035 35.8365C18.0202 35.5915 18.0992 35.3501 18.2559 35.1612C18.4126 34.9723 18.6352 34.8501 18.8787 34.8194C19.1222 34.7886 19.3683 34.8517 19.567 34.9957C19.7657 35.1397 19.9022 35.3539 19.9488 35.5949C19.9802 35.8099 20.7293 40.162 28.7255 40.162H28.8367C28.4933 39.5373 28.3036 38.8399 28.2833 38.1273C28.2816 37.9912 28.3088 37.8562 28.3629 37.7313C28.417 37.6064 28.497 37.4943 28.5974 37.4024C28.6998 37.3102 28.8206 37.2409 28.9519 37.1993C29.0832 37.1576 29.2218 37.1445 29.3586 37.1607C31.0985 37.3637 32.4372 37.3178 33.4038 37.0206C32.5472 36.5232 31.8351 35.8111 31.3377 34.9545C31.2471 34.7336 31.2414 34.4871 31.3217 34.2623C31.402 34.0375 31.5626 33.8504 31.7726 33.7369C31.9827 33.6235 32.2273 33.5918 32.4593 33.648C32.6913 33.7041 32.8943 33.8441 33.0293 34.041C33.4739 34.8723 34.6531 35.6939 35.656 35.8703C35.8229 35.9006 35.9789 35.9742 36.1083 36.0839C36.2378 36.1935 36.3361 36.3353 36.3934 36.4949C36.4507 36.6546 36.465 36.8265 36.4348 36.9934C36.4046 37.1604 36.331 37.3164 36.2214 37.4459C34.8416 39.0649 32.517 39.3042 30.4919 39.1978C30.7406 39.6521 31.0319 40.0818 31.3619 40.481C31.4677 40.6192 31.5342 40.7834 31.5545 40.9562C31.5747 41.1291 31.5479 41.3042 31.4768 41.4631C31.4058 41.622 31.2932 41.7587 31.1509 41.8589C31.0086 41.9591 30.8419 42.0191 30.6684 42.0324C29.9901 42.0726 29.3417 42.092 28.7231 42.0904Z" fill="#144A8F"/>
<path d="M33.4259 27.183C33.4259 29.0921 30.1975 32.6032 26.2127 32.6032C22.2279 32.6032 18.9971 29.0921 18.9971 27.183C18.9971 25.274 21.8848 0.966553 25.872 0.966553C29.8592 0.966553 33.4259 25.2764 33.4259 27.183Z" fill="white"/>
<path d="M26.212 33.5699C21.7754 33.5699 18.0322 29.6479 18.0322 27.1831C18.0322 26.9052 20.4705 0 25.8713 0C31.3374 0 34.3918 26.9124 34.3918 27.1831C34.3918 29.6479 30.656 33.5699 26.212 33.5699ZM25.8713 1.93077C23.3944 1.93077 19.963 23.3844 19.963 27.1831C19.963 28.4759 22.667 31.6391 26.212 31.6391C29.757 31.6391 32.4611 28.4759 32.4611 27.1831C32.4611 26.3228 31.5718 19.8031 30.1992 13.5686C27.7054 2.257 25.8882 1.93077 25.8713 1.93077Z" fill="#144A8F"/>
<path d="M30.5474 61.3788C30.6489 61.8911 29.808 61.3522 28.938 61.5237C28.0681 61.6953 27.4881 62.5145 27.3963 62.007C27.3045 61.4996 27.8168 60.4291 28.6867 60.2551C29.5567 60.0811 30.4459 60.8689 30.5474 61.3836" fill="#144A8F"/>
<path d="M21.9566 61.3788C21.8551 61.8911 22.696 61.3522 23.566 61.5237C24.4359 61.6953 25.0159 62.5145 25.1077 62.007C25.1995 61.4996 24.6872 60.4291 23.8173 60.2551C22.9473 60.0811 22.0581 60.8689 21.9566 61.3836" fill="#144A8F"/>
<path d="M12.7747 19.2982C12.7747 19.2982 7.07174 16.4757 1.79896 16.814C-0.0738214 22.2342 2.07202 27.6544 6.14864 29.7664" fill="white"/>
<path d="M6.13618 30.7329C5.98147 30.7322 5.82911 30.6949 5.69155 30.6241C1.01081 28.1907 -1.05529 22.1181 0.885152 16.4973C0.947508 16.3177 1.06147 16.1604 1.21277 16.0452C1.36407 15.93 1.54599 15.862 1.73576 15.8497C7.21635 15.4872 12.9603 18.3121 13.202 18.4329C13.4168 18.5547 13.577 18.754 13.6495 18.9901C13.722 19.2261 13.7014 19.481 13.592 19.7023C13.4825 19.9237 13.2925 20.0948 13.0609 20.1805C12.8293 20.2662 12.5737 20.26 12.3466 20.1632C12.2958 20.139 7.27193 17.6983 2.51387 17.7467C1.22829 22.2897 2.91259 27.0042 6.58082 28.9108C6.7716 29.0112 6.92336 29.1725 7.01197 29.369C7.10058 29.5655 7.12095 29.786 7.06984 29.9955C7.01874 30.2049 6.89909 30.3912 6.72991 30.5248C6.56074 30.6585 6.35175 30.7317 6.13618 30.7329Z" fill="#144A8F"/>
<path d="M3.65169 20.4314C3.52362 21.2385 3.68794 24.6168 6.69405 26.9825C6.71796 27.008 6.75014 27.0241 6.78485 27.0281C6.81955 27.032 6.85454 27.0235 6.88356 27.0041C6.91258 26.9846 6.93375 26.9555 6.9433 26.9219C6.95285 26.8883 6.95016 26.8524 6.9357 26.8206C6.74625 26.2974 6.62207 25.7528 6.56598 25.1991C6.56359 25.1666 6.57041 25.134 6.58565 25.1052C6.60089 25.0763 6.62394 25.0523 6.65216 25.0359C6.68039 25.0196 6.71266 25.0114 6.74527 25.0125C6.77789 25.0136 6.80955 25.0238 6.83662 25.0421C7.1121 25.2281 7.45041 25.3586 8.10528 25.2209C8.15415 25.2103 8.19986 25.1884 8.23871 25.1569C8.27755 25.1254 8.30846 25.0853 8.32892 25.0396C8.34938 24.994 8.35883 24.9442 8.3565 24.8943C8.35417 24.8443 8.34013 24.7956 8.31551 24.7521C8.16792 24.5328 8.06526 24.2864 8.01345 24.0271C8.00701 23.9832 8.01036 23.9383 8.02325 23.8958C8.03614 23.8532 8.05827 23.814 8.08804 23.781C8.11781 23.748 8.15451 23.722 8.1955 23.7048C8.23649 23.6876 8.28077 23.6797 8.32518 23.6816C9.4706 23.7227 10.3647 23.8652 11.08 23.3529" fill="#2494D1"/>
<path d="M10.6674 22.628C8.68977 21.7027 6.60065 21.0375 4.45215 20.6489L10.6674 22.628Z" fill="white"/>
<path d="M10.6667 23.5921C10.5186 23.5913 10.3725 23.5574 10.239 23.4931C8.34514 22.61 6.34562 21.9741 4.2896 21.6009C4.04566 21.549 3.83125 21.4047 3.69119 21.1983C3.55114 20.9919 3.49628 20.7394 3.5381 20.4935C3.57991 20.2476 3.71516 20.0274 3.91556 19.8789C4.11596 19.7304 4.366 19.6652 4.61341 19.6967C6.85484 20.099 9.03378 20.7936 11.0944 21.7628C11.2878 21.8606 11.4428 22.0204 11.5344 22.2168C11.6261 22.4132 11.6491 22.6346 11.5997 22.8456C11.5504 23.0566 11.4316 23.2449 11.2624 23.3803C11.0932 23.5157 10.8834 23.5903 10.6667 23.5921Z" fill="#144A8F"/>
<path d="M39.6484 19.2982C39.6484 19.2982 45.3538 16.4757 50.6266 16.814C52.4993 22.2342 50.3535 27.6544 46.2769 29.7664" fill="white"/>
<path d="M46.2889 30.7329C46.0731 30.7322 45.8637 30.6594 45.6941 30.526C45.5246 30.3925 45.4045 30.2062 45.3531 29.9966C45.3017 29.7871 45.3218 29.5663 45.4104 29.3696C45.499 29.1728 45.6508 29.0113 45.8418 28.9109C49.5052 27.0043 51.1967 22.2897 49.9112 17.7515C45.1241 17.6742 40.1292 20.139 40.0809 20.1632C39.8537 20.26 39.5981 20.2662 39.3665 20.1805C39.1349 20.0948 38.9449 19.9237 38.8355 19.7024C38.726 19.481 38.7055 19.2261 38.778 18.9901C38.8505 18.754 39.0106 18.5547 39.2255 18.433C39.4671 18.3146 45.2256 15.4994 50.6941 15.8497C50.8839 15.8621 51.0658 15.9301 51.2171 16.0453C51.3684 16.1605 51.4824 16.3177 51.5447 16.4974C53.4779 22.1181 51.4191 28.1908 46.7359 30.6242C46.5978 30.6959 46.4444 30.7332 46.2889 30.7329Z" fill="#144A8F"/>
<path d="M48.7799 20.4314C48.9079 21.2385 48.7436 24.6168 45.7375 26.9825C45.7136 27.008 45.6814 27.0241 45.6467 27.0281C45.612 27.032 45.577 27.0235 45.548 27.0041C45.519 26.9846 45.4978 26.9555 45.4882 26.9219C45.4787 26.8883 45.4814 26.8524 45.4958 26.8206C45.6842 26.297 45.8083 25.7526 45.8656 25.1991C45.868 25.1666 45.8611 25.134 45.8459 25.1052C45.8307 25.0763 45.8076 25.0523 45.7794 25.0359C45.7512 25.0196 45.7189 25.0114 45.6863 25.0125C45.6537 25.0136 45.622 25.0238 45.5949 25.0421C45.3194 25.2281 44.9811 25.3586 44.3263 25.2209C44.2774 25.2103 44.2317 25.1884 44.1928 25.1569C44.154 25.1254 44.1231 25.0853 44.1026 25.0396C44.0822 24.994 44.0727 24.9442 44.075 24.8943C44.0774 24.8443 44.0914 24.7956 44.116 24.7521C44.2626 24.5322 44.3652 24.286 44.4181 24.0271C44.4245 23.9832 44.4212 23.9383 44.4083 23.8958C44.3954 23.8532 44.3733 23.814 44.3435 23.781C44.3137 23.748 44.277 23.722 44.236 23.7048C44.1951 23.6876 44.1508 23.6797 44.1064 23.6816C42.9609 23.7227 42.0668 23.8652 41.3516 23.3529" fill="#2494D1"/>
<path d="M41.7549 22.628C43.7332 21.7025 45.8232 21.0372 47.9725 20.6489L41.7549 22.628Z" fill="white"/>
<path d="M41.7577 23.5921C41.5408 23.5908 41.3306 23.5166 41.161 23.3814C40.9914 23.2462 40.8722 23.0579 40.8225 22.8468C40.7729 22.6357 40.7957 22.414 40.8873 22.2174C40.9789 22.0208 41.1339 21.8607 41.3275 21.7628C43.3897 20.7931 45.5703 20.0985 47.8134 19.6967C48.0608 19.6652 48.3108 19.7304 48.5112 19.8789C48.7116 20.0274 48.8469 20.2476 48.8887 20.4935C48.9305 20.7394 48.8757 20.9919 48.7356 21.1983C48.5955 21.4047 48.3811 21.549 48.1372 21.6009C46.0805 21.9743 44.0802 22.6102 42.1854 23.4931C42.052 23.5575 41.9058 23.5913 41.7577 23.5921Z" fill="#144A8F"/>
<path d="M45.3175 52.8245C42.8599 58.1408 38.0221 61.1324 34.511 59.511C30.9998 57.8895 30.1468 52.2615 32.6019 46.9452C35.0571 41.6289 39.8973 38.6349 43.4085 40.2588C46.9196 41.8827 47.7751 47.5083 45.3175 52.8245Z" fill="white"/>
<path d="M36.5698 60.9197C35.7198 60.9236 34.8793 60.7413 34.1074 60.3857C32.1041 59.4602 30.775 57.4617 30.3642 54.7577C29.9752 52.201 30.4609 49.2819 31.7271 46.5416C34.4046 40.742 39.8296 37.5426 43.8096 39.384C47.7895 41.2253 48.8649 47.4381 46.1898 53.228C44.9211 55.9683 43.0121 58.2277 40.8131 59.5882C39.3898 60.4727 37.9399 60.9197 36.5698 60.9197ZM41.3786 40.7904C38.6069 40.7904 35.2963 43.4195 33.4791 47.3511C32.3699 49.7531 31.9398 52.2808 32.2708 54.4677C32.5801 56.5096 33.5202 57.9909 34.9145 58.6337C36.3088 59.2765 38.0559 59.0349 39.8006 57.9474C41.6806 56.7827 43.3287 54.8205 44.4379 52.4185C46.6296 47.6774 45.9723 42.5109 43.0025 41.1359C42.4928 40.9039 41.9386 40.786 41.3786 40.7904Z" fill="#144A8F"/>
<path d="M7.10773 52.8245C9.56289 58.1408 14.4007 61.1324 17.9119 59.511C21.423 57.8895 22.2785 52.2615 19.8209 46.9452C17.3633 41.6289 12.5328 38.6373 9.01434 40.2612C5.49594 41.8851 4.65016 47.5107 7.10773 52.827" fill="white"/>
<path d="M15.8528 60.9198C14.4826 60.9198 13.0327 60.4727 11.607 59.5883C9.40798 58.2278 7.49896 55.9635 6.2303 53.2281C3.55525 47.4285 4.62092 41.2278 8.61054 39.384C12.6002 37.5402 18.0204 40.7517 20.693 46.5416C21.9592 49.2819 22.4425 52.2011 22.0535 54.7577C21.6427 57.4618 20.3136 59.4602 18.3127 60.3857C17.5415 60.7409 16.7019 60.9232 15.8528 60.9198ZM11.0464 40.7904C10.4855 40.7854 9.93042 40.9034 9.42007 41.136C6.4502 42.5109 5.79533 47.6774 7.98226 52.4185C9.09142 54.8205 10.7395 56.7827 12.6219 57.9475C14.3787 59.0446 16.1137 59.2862 17.5081 58.6338C18.9024 57.9813 19.84 56.5097 20.1517 54.4677C20.4828 52.2808 20.055 49.7532 18.9434 47.3512C17.1238 43.4195 13.8181 40.7904 11.0464 40.7904Z" fill="#144A8F"/>
<path d="M7.10773 52.8245C9.56289 58.1408 14.4007 61.1324 17.9119 59.511C21.423 57.8895 22.2785 52.2615 19.8209 46.9452C17.3633 41.6289 12.5328 38.6373 9.01434 40.2612C5.49594 41.8851 4.65016 47.5107 7.10773 52.827" fill="white"/>
<path d="M15.8528 60.9198C14.4826 60.9198 13.0327 60.4727 11.607 59.5883C9.40798 58.2278 7.49896 55.9635 6.2303 53.2281C3.55525 47.4285 4.62092 41.2278 8.61054 39.384C12.6002 37.5402 18.0204 40.7517 20.693 46.5416C21.9592 49.2819 22.4425 52.2011 22.0535 54.7577C21.6427 57.4618 20.3136 59.4602 18.3127 60.3857C17.5415 60.7409 16.7019 60.9232 15.8528 60.9198ZM11.0464 40.7904C10.4855 40.7854 9.93042 40.9034 9.42007 41.136C6.4502 42.5109 5.79533 47.6774 7.98226 52.4185C9.09142 54.8205 10.7395 56.7827 12.6219 57.9475C14.3787 59.0446 16.1137 59.2862 17.5081 58.6338C18.9024 57.9813 19.84 56.5097 20.1517 54.4677C20.4828 52.2808 20.055 49.7532 18.9434 47.3512C17.1238 43.4195 13.8181 40.7904 11.0464 40.7904Z" fill="#144A8F"/>
<path d="M20.1638 48.6535C20.0154 48.9918 19.7915 49.2916 19.5092 49.5298C19.2268 49.768 18.8937 49.9383 18.5352 50.0277C18.1768 50.117 17.8027 50.123 17.4416 50.0451C17.0805 49.9673 16.742 49.8077 16.4522 49.5786C16.1625 49.3495 15.929 49.0571 15.7699 48.7237C15.6108 48.3903 15.5303 48.0249 15.5345 47.6555C15.5387 47.2862 15.6275 46.9227 15.7941 46.593C15.9607 46.2633 16.2007 45.9762 16.4956 45.7537C16.3989 45.7537 16.3071 45.7247 16.208 45.7247C15.3112 45.7095 14.4327 45.9795 13.6992 46.4957C12.9657 47.012 12.4151 47.7479 12.1269 48.5973C11.8387 49.4467 11.8276 50.3657 12.0954 51.2217C12.3632 52.0778 12.8959 52.8267 13.6168 53.3604C14.3377 53.8941 15.2095 54.1851 16.1064 54.1914C17.0034 54.1977 17.8791 53.9189 18.6074 53.3953C19.3357 52.8717 19.8788 52.1304 20.1586 51.2781C20.4383 50.4259 20.4401 49.5069 20.1638 48.6535Z" fill="#144A8F"/>
<path d="M21.1695 59.1436C20.5662 59.8922 20.2654 60.8396 20.3262 61.7991C20.387 62.7586 20.8052 63.6605 21.4981 64.3269C22.513 65.2935 24.7338 65.8662 25.872 65.9653C25.872 65.9653 17.5737 65.4192 14.7803 61.3257C15.9885 60.0787 19.13 58.3824 20.0676 57.1862C21.0052 55.9901 22.9939 53.6654 24.3182 54.8301" fill="#2494D1"/>
<path d="M22.9986 54.5209C22.9986 54.5209 24.5838 45.4929 17.6992 42.9097C19.1829 46.2517 22.2543 53.5205 20.7827 56.2463C19.311 58.9721 22.9986 54.5209 22.9986 54.5209Z" fill="#2494D1"/>
<path d="M26.2078 67.5336C21.5802 67.5336 16.926 65.0567 12.7455 60.3736C12.6729 60.29 12.6142 60.1954 12.5715 60.0933C10.0874 58.8995 7.73854 56.4685 6.23065 53.2304C3.55559 47.4309 4.62368 41.2277 8.61089 39.384C10.6117 38.4584 12.9968 38.7412 15.3215 40.1814C17.5229 41.5419 19.4295 43.8061 20.6982 46.5416C21.9402 49.2311 22.3752 52.0125 22.0852 54.4049C23.2335 53.3372 24.7508 52.756 26.3184 52.7835C27.8861 52.811 29.3821 53.445 30.4922 54.5523L33.9284 57.9692C34.091 58.1532 34.1774 58.3922 34.1701 58.6377C34.1628 58.8831 34.0624 59.1166 33.8892 59.2906C33.716 59.4647 33.4831 59.5664 33.2377 59.575C32.9923 59.5836 32.7529 59.4985 32.568 59.3369L29.1293 55.9176C28.3552 55.146 27.3068 54.7127 26.2138 54.7127C25.1208 54.7127 24.0724 55.146 23.2983 55.9176L19.937 59.2644C19.9065 59.2938 19.8742 59.3212 19.8403 59.3466C19.3939 59.7755 18.8795 60.1274 18.3179 60.3881C17.5782 60.726 16.7751 60.903 15.9618 60.9076C18.5692 63.3241 22.1021 65.6053 26.2078 65.6053C26.4641 65.6053 26.71 65.7071 26.8912 65.8884C27.0725 66.0697 27.1744 66.3155 27.1744 66.5719C27.1744 66.8282 27.0725 67.0741 26.8912 67.2554C26.71 67.4366 26.4641 67.5385 26.2078 67.5385V67.5336ZM7.9826 52.4185C10.213 57.2515 14.4805 60.0329 17.5084 58.6337C20.4783 57.2611 21.1331 52.0947 18.9583 47.3511C17.8491 44.9515 16.2011 42.9869 14.3186 41.8222C12.5618 40.7348 10.8268 40.4931 9.43249 41.1359C6.46263 42.5085 5.80776 47.6773 7.99468 52.4185H7.9826Z" fill="#144A8F"/>
<path d="M44.8169 70.199C43.0867 70.173 41.3841 69.7602 39.8341 68.9908C39.6168 68.8725 39.4532 68.6753 39.3768 68.44C39.3005 68.2046 39.3174 67.9489 39.4239 67.7256C39.5305 67.5023 39.7186 67.3284 39.9496 67.2396C40.1805 67.1508 40.4367 67.154 40.6654 67.2485C43.2607 68.4881 45.7884 68.5896 47.9149 67.5675C47.0908 66.8618 46.4215 66.2964 46.4191 66.2964C46.2476 66.1484 46.1336 65.9449 46.0969 65.7214C46.0602 65.4979 46.1031 65.2686 46.2182 65.0736C46.3333 64.8785 46.5132 64.73 46.7266 64.6541C46.9399 64.5781 47.1732 64.5795 47.3856 64.658C49.1956 65.383 50.8098 65.354 52.3177 64.6C54.2243 63.6479 55.6065 61.6857 56.5248 59.929C55.0749 60.4968 53.0233 60.7409 50.2009 60.0812C44.2056 58.6724 39.6916 64.2641 39.6481 64.3197C39.4846 64.5053 39.2561 64.6212 39.0098 64.6435C38.7634 64.6658 38.5179 64.5928 38.3237 64.4395C38.1296 64.2863 38.0016 64.0644 37.9661 63.8196C37.9306 63.5748 37.9903 63.3257 38.1329 63.1235C38.3456 62.8529 43.4347 56.5096 50.6431 58.2012C56.3967 59.5496 57.9191 56.4734 57.982 56.3429C58.0841 56.1233 58.2649 55.9501 58.4886 55.8574C58.7124 55.7648 58.9628 55.7595 59.1902 55.8427C59.416 55.926 59.6025 56.0906 59.7133 56.3043C59.8242 56.5179 59.8513 56.7652 59.7895 56.9978C59.7122 57.2829 57.8321 64.0056 53.1828 66.323C52.2809 66.781 51.2931 67.0452 50.283 67.0987C50.3662 67.2008 50.4276 67.3188 50.4636 67.4455C50.4995 67.5722 50.5092 67.7049 50.492 67.8354C50.4748 67.966 50.4311 68.0917 50.3636 68.2048C50.2961 68.3178 50.2062 68.4159 50.0994 68.493C48.5636 69.6067 46.714 70.204 44.8169 70.199Z" fill="#144A8F"/>
<path d="M22.7471 79.8384H14.8428V83.1103H22.7471V79.8384Z" fill="#EB2126"/>
<path d="M34.9918 81.3052H27.0898V84.5771H34.9918V81.3052Z" fill="#EB2126"/>
<path d="M30.91 85.0024C30.6536 85.0024 30.4077 84.9006 30.2265 84.7193C30.0452 84.5381 29.9434 84.2922 29.9434 84.0359V82.7019C29.9434 82.4456 30.0452 82.1997 30.2265 82.0185C30.4077 81.8372 30.6536 81.7354 30.91 81.7354C31.1663 81.7354 31.4122 81.8372 31.5935 82.0185C31.7747 82.1997 31.8766 82.4456 31.8766 82.7019V84.0359C31.8766 84.2922 31.7747 84.5381 31.5935 84.7193C31.4122 84.9006 31.1663 85.0024 30.91 85.0024Z" fill="#144A8F"/>
<path d="M14.9804 79.4832C14.9804 79.4832 16.0727 79.4832 16.9136 79.4349C17.1794 79.4228 17.3703 79.7804 17.2689 80.1091C16.8798 81.3801 17.2157 82.4072 16.9209 82.8035C16.5681 83.2698 14.5986 82.5473 14.5986 82.5473L14.9804 79.4832Z" fill="#A62126"/>
<path d="M26.9766 81.0853C26.9766 81.0853 28.0591 80.9427 28.888 80.7953C29.149 80.7494 29.3713 81.0804 29.323 81.4188C29.0982 82.7285 29.5646 83.7048 29.323 84.1349C29.0306 84.6448 26.9862 84.1736 26.9862 84.1736L26.9766 81.0853Z" fill="#A62126"/>
<path d="M22.6052 25.9628C22.6052 25.9628 26.6504 29.3652 29.4173 28.6209C31.0895 28.169 29.323 31.7623 22.8396 30.861C16.0927 29.9186 19.5894 23.0388 19.5894 23.0388L22.6052 25.9628Z" fill="#EB2126"/>
<path d="M23.4914 18.9138C23.9554 20.0109 27.481 21.6686 29.9338 21.5285C30.0959 21.517 30.2571 21.5603 30.3917 21.6514C30.5262 21.7426 30.6262 21.8763 30.6756 22.0311C31.2628 23.9305 31.2822 26.1174 30.7892 26.997C30.3059 27.8379 19.5429 25.8564 19.4969 21.3182C19.451 16.7801 21.2682 16.6907 21.2682 16.6907L23.4914 18.9138Z" fill="#EB2126"/>
<path d="M23.5616 11.3285C23.9265 12.3748 26.6837 14.0374 28.5396 14.2041C28.7579 14.2247 28.9654 14.3083 29.137 14.4448C29.3086 14.5812 29.4369 14.7646 29.5062 14.9726C29.9895 16.3935 30.1321 17.9279 30.3616 19.3005C30.5066 20.1608 20.3187 18.2711 20.28 13.7426C20.2414 9.21407 21.7299 9.11499 21.7299 9.11499L23.5616 11.3285Z" fill="#EB2126"/>
<path d="M29.6174 27.908C26.5363 27.908 23.7719 26.6152 22.7594 26.0811C20.8818 25.0856 18.8157 23.4979 18.6054 22.0239C18.5832 21.776 18.6574 21.5291 18.8127 21.3346C18.9679 21.1401 19.1921 21.013 19.4387 20.9796C19.6854 20.9463 19.9353 21.0094 20.1366 21.1557C20.3379 21.3021 20.4749 21.5204 20.5193 21.7653C20.5845 22.1447 21.6816 23.3771 23.9193 24.5056C25.142 25.1218 29.4023 26.997 32.8989 25.2475C33.013 25.182 33.1392 25.1404 33.2699 25.1254C33.4006 25.1104 33.5329 25.1222 33.6589 25.1601C33.7848 25.198 33.9017 25.2612 34.0024 25.3459C34.1031 25.4306 34.1854 25.5349 34.2443 25.6524C34.3033 25.77 34.3376 25.8984 34.3453 26.0297C34.3529 26.161 34.3336 26.2925 34.2887 26.4161C34.2437 26.5397 34.174 26.6528 34.0838 26.7486C33.9936 26.8443 33.8848 26.9206 33.7641 26.9728C32.474 27.6046 31.0537 27.9249 29.6174 27.908ZM29.0543 20.6585C27.009 20.6165 25.0043 20.0801 23.2113 19.0951C21.5825 18.2324 19.7823 16.8477 19.6059 15.5477C19.5808 15.2987 19.6533 15.0497 19.8081 14.8531C19.9629 14.6565 20.1879 14.5275 20.4358 14.4934C20.6837 14.4593 20.9352 14.5226 21.1373 14.6701C21.3395 14.8176 21.4766 15.0378 21.5197 15.2843C21.6091 15.6081 22.6627 16.7583 24.7771 17.7225C26.0168 18.288 29.1848 19.46 31.8212 18.1357C32.0478 18.0377 32.3033 18.0301 32.5354 18.1145C32.7674 18.1989 32.9584 18.3689 33.069 18.5896C33.1797 18.8104 33.2017 19.0651 33.1305 19.3015C33.0594 19.5379 32.9004 19.7382 32.6863 19.8611C31.5542 20.406 30.3105 20.679 29.0543 20.6585Z" fill="#144A8F"/>
<path d="M28.5467 9.96072C28.5945 10.1585 28.5642 10.3672 28.462 10.5432C28.3598 10.7192 28.1937 10.849 27.9982 10.9056C27.2475 11.168 26.4611 11.3139 25.6662 11.3381C22.9235 11.4034 21.8047 8.07345 21.8047 8.07345C21.8047 8.07345 22.8752 1.68183 25.282 1.74708C26.0988 1.76883 27.9281 7.38716 28.5467 9.96314" fill="#EB2126"/>
<path d="M26.213 33.5699C21.7763 33.5699 18.0332 29.6479 18.0332 27.1831C18.0332 27.0188 18.9466 16.8816 20.8895 9.03767C20.8991 8.94964 20.921 8.8634 20.9547 8.78152C22.1823 3.91713 23.811 0 25.8723 0C31.3384 0 34.3928 26.9124 34.3928 27.1831C34.3928 29.6479 30.6569 33.5699 26.213 33.5699ZM22.378 11.2681C21.0176 17.551 19.9616 25.0807 19.9616 27.1831C19.9616 28.4759 22.6656 31.6391 26.2106 31.6391C29.7556 31.6391 32.4596 28.4759 32.4596 27.1831C32.4596 26.3228 31.5704 19.8031 30.1978 13.5686C30.1688 13.4308 30.1374 13.2955 30.1084 13.1626C28.2235 13.6459 25.9399 13.3076 23.7675 12.1574C23.2813 11.8986 22.8167 11.6012 22.378 11.2681ZM22.8734 9.09325C23.1513 9.47022 24.1083 10.3015 25.6427 10.8984C26.5417 11.2512 28.1607 11.7151 29.671 11.2898C27.4551 2.20625 25.8868 1.93319 25.8723 1.93319C24.9299 1.93077 23.8497 5.03596 22.8734 9.09083V9.09325Z" fill="#144A8F"/>
<path d="M40.1659 48.6197C40.0202 48.9603 39.7982 49.2628 39.517 49.504C39.2359 49.7451 38.903 49.9184 38.5442 50.0104C38.1854 50.1024 37.8102 50.1107 37.4477 50.0346C37.0851 49.9585 36.7449 49.8001 36.4534 49.5716C36.1618 49.3432 35.9267 49.0507 35.7662 48.7168C35.6056 48.383 35.524 48.0167 35.5276 47.6463C35.5312 47.2759 35.6198 46.9113 35.7868 46.5806C35.9537 46.2499 36.1945 45.962 36.4904 45.7392C36.3986 45.7392 36.3116 45.7126 36.2173 45.7126C35.3937 45.7126 34.5886 45.9569 33.9039 46.4145C33.2191 46.8721 32.6855 47.5225 32.3704 48.2835C32.0554 49.0444 31.973 49.8817 32.1339 50.6894C32.2947 51.4971 32.6915 52.239 33.2741 52.8212C33.8566 53.4034 34.5987 53.7998 35.4065 53.9602C36.2143 54.1205 37.0516 54.0377 37.8123 53.7222C38.5731 53.4067 39.2232 52.8727 39.6804 52.1877C40.1376 51.5027 40.3814 50.6974 40.3809 49.8738C40.3753 49.4471 40.3028 49.0239 40.1659 48.6197Z" fill="#144A8F"/>
<path d="M26.251 69.9188L26.3356 69.711C27.1837 69.5491 28.4258 70.1121 28.7665 70.9047L29.8516 74.0655C29.9978 74.493 30.0171 74.9538 29.9071 75.3921L28.653 80.4257L28.1818 74.6889L26.251 69.9188Z" fill="#2494D1"/>
<path d="M18.6103 83.9343C18.354 83.9343 18.1081 83.8325 17.9269 83.6512C17.7456 83.47 17.6437 83.2241 17.6437 82.9677V81.7812C17.6437 81.5249 17.7456 81.279 17.9269 81.0977C18.1081 80.9165 18.354 80.8146 18.6103 80.8146C18.8667 80.8146 19.1126 80.9165 19.2938 81.0977C19.4751 81.279 19.5769 81.5249 19.5769 81.7812V82.9677C19.5769 83.2241 19.4751 83.47 19.2938 83.6512C19.1126 83.8325 18.8667 83.9343 18.6103 83.9343ZM22.0901 80.1139H14.8406C14.5843 80.1139 14.3384 80.012 14.1571 79.8307C13.9759 79.6495 13.874 79.4036 13.874 79.1473C13.874 78.8909 13.9759 78.645 14.1571 78.4638C14.3384 78.2825 14.5843 78.1807 14.8406 78.1807H22.0901C22.3464 78.1807 22.5923 78.2825 22.7736 78.4638C22.9548 78.645 23.0567 78.8909 23.0567 79.1473C23.0567 79.4036 22.9548 79.6495 22.7736 79.8307C22.5923 80.012 22.3464 80.1139 22.0901 80.1139Z" fill="#144A8F"/>
<path d="M34.5227 81.3848H27.6502C27.3938 81.3848 27.148 81.283 26.9667 81.1017C26.7854 80.9205 26.6836 80.6746 26.6836 80.4183C26.6836 80.1619 26.7854 79.916 26.9667 79.7348C27.148 79.5535 27.3938 79.4517 27.6502 79.4517H34.5227C34.7791 79.4517 35.0249 79.5535 35.2062 79.7348C35.3875 79.916 35.4893 80.1619 35.4893 80.4183C35.4893 80.6746 35.3875 80.9205 35.2062 81.1017C35.0249 81.283 34.7791 81.3848 34.5227 81.3848Z" fill="#144A8F"/>
<path d="M26.8556 71.1462C27.7424 72.033 29.2866 74.4834 28.6486 75.1189C28.0107 75.7544 25.9905 75.1817 25.1109 74.2949C24.2313 73.408 23.9389 72.2119 24.5768 71.5763C25.8841 72.1152 25.9687 70.2593 26.8556 71.1462Z" fill="#2494D1"/>
<path d="M22.0036 84.0745H14.6284C14.4963 84.0747 14.3654 84.0478 14.2441 83.9954C14.1227 83.9431 14.0134 83.8664 13.9228 83.7701C13.8324 83.6734 13.7628 83.5591 13.7183 83.4344C13.6738 83.3097 13.6554 83.1772 13.6643 83.0451L14.4085 71.8302C14.4154 71.7359 14.4357 71.6432 14.469 71.5547L17.4002 63.7422C17.4987 63.5144 17.6811 63.3333 17.9095 63.2363C18.1379 63.1393 18.3949 63.1339 18.6272 63.2212C18.8595 63.3084 19.0494 63.4817 19.1574 63.7051C19.2655 63.9285 19.2835 64.1849 19.2077 64.4212L16.3272 72.0936L15.6603 82.1462H21.0587L21.1965 75.9116C21.2 75.784 21.2287 75.6583 21.281 75.5419L22.9726 71.7649C23.02 71.643 23.0917 71.5319 23.1833 71.4385C23.2749 71.3451 23.3845 71.2712 23.5055 71.2214C23.6265 71.1716 23.7563 71.1469 23.8872 71.1487C24.018 71.1506 24.1471 71.179 24.2666 71.2322C24.3861 71.2854 24.4936 71.3623 24.5825 71.4583C24.6715 71.5543 24.74 71.6673 24.7839 71.7906C24.8279 71.9138 24.8463 72.0447 24.8382 72.1753C24.8301 72.3059 24.7955 72.4335 24.7366 72.5503L23.1345 76.1484L22.9798 83.1321C22.9735 83.3859 22.8675 83.6271 22.6849 83.8034C22.5022 83.9798 22.2575 84.0771 22.0036 84.0745Z" fill="#144A8F"/>
<path d="M27.5858 78.4851H22.6006V81.4719H27.5858V78.4851Z" fill="#EB2126"/>
<path d="M27.5876 82.4385H22.6023C22.346 82.4385 22.1001 82.3367 21.9189 82.1554C21.7376 81.9741 21.6357 81.7283 21.6357 81.4719V78.4852C21.6357 78.2288 21.7376 77.9829 21.9189 77.8017C22.1001 77.6204 22.346 77.5186 22.6023 77.5186H27.5876C27.8439 77.5186 28.0898 77.6204 28.2711 77.8017C28.4523 77.9829 28.5542 78.2288 28.5542 78.4852V81.4744C28.5535 81.7303 28.4514 81.9755 28.2702 82.1563C28.089 82.337 27.8435 82.4385 27.5876 82.4385ZM23.5665 80.5053H26.621V79.4469H23.5665V80.5053Z" fill="#144A8F"/>
<path d="M34.6898 85.0001H27.3146C27.18 85.0006 27.0468 84.973 26.9235 84.9191C26.8002 84.8652 26.6895 84.7861 26.5985 84.6869C26.5075 84.5877 26.4382 84.4706 26.3951 84.3431C26.3519 84.2156 26.3359 84.0805 26.348 83.9465L27.1914 74.8411L25.4999 71.0014C25.409 70.7685 25.4119 70.5096 25.5079 70.2788C25.6039 70.0481 25.7855 69.8635 26.0146 69.7638C26.2438 69.664 26.5027 69.6569 26.7369 69.744C26.9712 69.831 27.1627 70.0054 27.2711 70.2305L29.0473 74.2974C29.1147 74.449 29.1405 74.6158 29.1222 74.7807L28.3561 83.0814H33.8416L35.4341 72.6905C35.4481 72.5607 35.4882 72.4351 35.5521 72.3212C35.616 72.2074 35.7023 72.1077 35.8058 72.0281C35.9093 71.9485 36.0278 71.8907 36.1542 71.8582C36.2807 71.8257 36.4124 71.8191 36.5414 71.8388C36.6704 71.8586 36.7941 71.9043 36.905 71.9732C37.0159 72.0421 37.1117 72.1327 37.1866 72.2396C37.2616 72.3465 37.314 72.4675 37.3409 72.5952C37.3678 72.723 37.3685 72.8548 37.3431 72.9829L36.2146 80.5175C36.2613 80.515 36.308 80.515 36.3547 80.5175H37.5847C37.6459 80.3205 37.7685 80.1482 37.9346 80.0259C38.1007 79.9036 38.3015 79.8376 38.5078 79.8376C38.7141 79.8376 38.915 79.9036 39.0811 80.0259C39.2471 80.1482 39.3697 80.3205 39.4309 80.5175H40.615C40.4362 66.3738 36.3499 62.5606 36.3064 62.5243C36.1154 62.3555 35.9989 62.118 35.9822 61.8637C35.9654 61.6093 36.0498 61.3587 36.217 61.1662C36.3828 60.976 36.6163 60.8582 36.8678 60.8379C37.1193 60.8175 37.3688 60.8964 37.563 61.0575C37.766 61.2315 42.5506 65.4628 42.5506 81.4817C42.5506 81.738 42.4488 81.9839 42.2675 82.1651C42.0862 82.3464 41.8404 82.4483 41.584 82.4483H36.3451C36.1997 82.4483 36.0561 82.4161 35.9246 82.354L35.6443 84.1905C35.607 84.4167 35.4906 84.6224 35.3157 84.7706C35.1409 84.9189 34.919 85.0002 34.6898 85.0001ZM24.8426 81.9698C24.5862 81.9698 24.3404 81.8679 24.1591 81.6867C23.9778 81.5054 23.876 81.2595 23.876 81.0032V80.793C23.876 80.5366 23.9778 80.2907 24.1591 80.1095C24.3404 79.9282 24.5862 79.8264 24.8426 79.8264C25.0989 79.8264 25.3448 79.9282 25.5261 80.1095C25.7073 80.2907 25.8092 80.5366 25.8092 80.793V81.008C25.8079 81.2635 25.7055 81.5082 25.5244 81.6884C25.3432 81.8686 25.0981 81.9698 24.8426 81.9698Z" fill="#144A8F"/>
</g>
<defs>
<clipPath id="clip0_2304_5885">
<rect width="397.684" height="85" fill="white" transform="translate(0.158203)"/>
</clipPath>
</defs>
</svg>
