<svg width="480" height="525" viewBox="0 0 480 525" fill="none" xmlns="http://www.w3.org/2000/svg">
<g clip-path="url(#clip0_22_2624)">
<path d="M238.758 524.166C231.914 524.166 225.391 522.79 220.513 519.966L7.39809 396.933C2.62686 394.181 0 390.357 0 386.157C0 381.118 3.78839 376.043 10.3823 372.237L217.529 252.652C229.913 245.504 248.747 244.718 259.487 250.937L472.602 373.988C477.373 376.74 480 380.564 480 384.764C480 389.803 476.212 394.878 469.618 398.684L262.471 518.269C255.699 522.182 246.996 524.184 238.758 524.184V524.166ZM241.242 247.524C233.147 247.524 224.587 249.489 217.922 253.349L10.7755 372.934C4.4317 376.597 0.80414 381.422 0.80414 386.157C0.80414 390.053 3.28804 393.627 7.79122 396.236L220.906 519.287C231.431 525.363 249.891 524.595 262.078 517.572L469.225 397.987C475.568 394.324 479.196 389.499 479.196 384.764C479.196 380.868 476.712 377.294 472.209 374.685L259.094 251.634C254.323 248.882 247.943 247.542 241.242 247.542V247.524Z" fill="#6EE8FC"/>
<path style="mix-blend-mode:lighten" opacity="0.3" d="M310.273 338.802C241.457 378.527 129.896 378.527 61.097 338.802C-7.7195 299.078 -7.7195 234.657 61.097 194.933C129.913 155.208 241.475 155.208 310.273 194.933C379.09 234.657 379.09 299.078 310.273 338.802Z" fill="url(#paint0_radial_22_2624)"/>
<path style="mix-blend-mode:lighten" d="M203.322 270.522C203.322 279.404 196.121 286.605 187.24 286.605C178.358 286.605 171.157 279.404 171.157 270.522C171.157 261.641 178.358 254.439 187.24 254.439C196.121 254.439 203.322 261.641 203.322 270.522Z" fill="url(#paint1_radial_22_2624)"/>
<path d="M191.832 270.523C191.832 273.06 189.777 275.115 187.24 275.115C184.702 275.115 182.647 273.06 182.647 270.523C182.647 267.985 184.702 265.93 187.24 265.93C189.777 265.93 191.832 267.985 191.832 270.523Z" fill="#6EE8FC"/>
<path style="mix-blend-mode:lighten" d="M41.1361 364.356C41.1361 373.238 33.9345 380.439 25.0533 380.439C16.172 380.439 8.97046 373.238 8.97046 364.356C8.97046 355.475 16.172 348.273 25.0533 348.273C33.9345 348.273 41.1361 355.475 41.1361 364.356Z" fill="url(#paint2_radial_22_2624)"/>
<path d="M29.6458 364.357C29.6458 366.894 27.5907 368.949 25.0532 368.949C22.5157 368.949 20.4607 366.894 20.4607 364.357C20.4607 361.819 22.5157 359.764 25.0532 359.764C27.5907 359.764 29.6458 361.819 29.6458 364.357Z" fill="#6EE8FC"/>
<path style="mix-blend-mode:lighten" d="M393.171 451.614C393.171 460.495 385.969 467.697 377.088 467.697C368.207 467.697 361.005 460.495 361.005 451.614C361.005 442.733 368.207 435.531 377.088 435.531C385.969 435.531 393.171 442.733 393.171 451.614Z" fill="url(#paint3_radial_22_2624)"/>
<path d="M381.68 451.614C381.68 454.152 379.625 456.207 377.088 456.207C374.55 456.207 372.495 454.152 372.495 451.614C372.495 449.077 374.55 447.022 377.088 447.022C379.625 447.022 381.68 449.077 381.68 451.614Z" fill="#6EE8FC"/>
<path style="mix-blend-mode:lighten" d="M422.996 434.048C422.996 442.929 415.794 450.131 406.913 450.131C398.032 450.131 390.83 442.929 390.83 434.048C390.83 425.167 398.032 417.965 406.913 417.965C415.794 417.965 422.996 425.167 422.996 434.048Z" fill="url(#paint4_radial_22_2624)"/>
<path d="M411.487 434.049C411.487 436.586 409.432 438.641 406.895 438.641C404.357 438.641 402.302 436.586 402.302 434.049C402.302 431.511 404.357 429.456 406.895 429.456C409.432 429.456 411.487 431.511 411.487 434.049Z" fill="#6EE8FC"/>
<path style="mix-blend-mode:lighten" d="M452.82 416.733C452.82 425.614 445.618 432.815 436.737 432.815C427.856 432.815 420.654 425.614 420.654 416.733C420.654 407.851 427.856 400.65 436.737 400.65C445.618 400.65 452.82 407.851 452.82 416.733Z" fill="url(#paint5_radial_22_2624)"/>
<path d="M436.719 421.326C439.256 421.326 441.312 419.27 441.312 416.733C441.312 414.197 439.256 412.141 436.719 412.141C434.183 412.141 432.127 414.197 432.127 416.733C432.127 419.27 434.183 421.326 436.719 421.326Z" fill="#6EE8FC"/>
<path d="M219.691 484.584L67.7979 396.897C56.2541 390.232 57.7015 378.598 71.0324 370.897L216.457 286.944C229.787 279.242 249.945 278.42 261.488 285.086L413.382 372.773C424.925 379.438 423.478 391.072 410.147 398.773L264.723 482.726C251.392 490.427 231.235 491.249 219.691 484.602V484.584Z" fill="#0A0E2D"/>
<path d="M440.526 295.093V263.696H359.504L263.722 208.389C250.945 201.009 228.608 201.938 213.848 210.462L121.64 263.696H40.5823V296.88H40.6538C40.2964 301.866 43.084 306.69 49.2134 310.247L217.439 407.369C230.216 414.749 252.554 413.82 267.314 405.296L428.374 312.302C436.88 307.387 440.99 301.026 440.526 295.093Z" fill="#312A91"/>
<path opacity="0.5" d="M440.526 295.093V263.696H359.504L263.722 208.389C250.945 201.009 228.608 201.938 213.848 210.462L121.64 263.696H40.5823V296.88H40.6538C40.2964 301.866 43.084 306.69 49.2134 310.247L217.439 407.369C230.216 414.749 252.554 413.82 267.314 405.296L428.374 312.302C436.88 307.387 440.99 301.026 440.526 295.093Z" fill="url(#paint6_linear_22_2624)"/>
<path d="M263.74 208.388C257.593 204.832 249.248 203.224 240.581 203.438V412.3C249.945 412.068 259.648 409.709 267.332 405.295L428.392 312.301C436.898 307.387 441.008 301.025 440.544 295.092V263.695H359.522L263.74 208.388Z" fill="url(#paint7_linear_22_2624)"/>
<path d="M217.44 374.167L49.2134 277.045C36.4366 269.664 38.027 256.78 52.7874 248.256L213.848 155.262C228.608 146.738 250.927 145.809 263.722 153.189L431.948 250.311C444.725 257.692 443.135 270.576 428.374 279.1L267.314 372.094C252.554 380.618 230.216 381.547 217.44 374.167Z" fill="#312A91"/>
<path opacity="0.5" d="M217.44 374.167L49.2134 277.045C36.4366 269.664 38.027 256.78 52.7874 248.256L213.848 155.262C228.608 146.738 250.927 145.809 263.722 153.189L431.948 250.311C444.725 257.692 443.135 270.576 428.374 279.1L267.314 372.094C252.554 380.618 230.216 381.547 217.44 374.167Z" fill="url(#paint8_linear_22_2624)"/>
<path d="M221.943 352.705L86.4003 274.453C76.1073 268.503 77.3939 258.121 89.2773 251.259L219.048 176.331C230.949 169.469 248.926 168.718 259.237 174.669L394.779 252.92C405.072 258.871 403.785 269.253 391.902 276.115L262.132 351.043C250.23 357.905 232.253 358.656 221.943 352.705Z" fill="#5CFFF3"/>
<path d="M89.2772 261.391L219.048 186.463C230.949 179.601 248.926 178.85 259.237 184.801L394.779 263.053C397.316 264.518 399.157 266.269 400.301 268.146C403.285 262.66 401.569 256.816 394.779 252.903L259.237 174.651C248.944 168.7 230.949 169.451 219.048 176.313L89.2772 251.241C80.3244 256.405 77.3759 263.571 80.8784 269.343C82.4331 266.502 85.2208 263.732 89.2772 261.391Z" fill="#42E8E0"/>
<path opacity="0.5" d="M223.104 374.166L54.8602 277.044C42.0833 269.664 39.0276 258.817 58.4341 248.256L219.494 155.262C226.75 151.062 235.845 148.721 244.727 148.292C234.166 147.81 222.657 150.169 213.848 155.262L52.8052 248.256C38.0447 256.78 36.4365 269.664 49.2312 277.044L217.457 374.166C223.962 377.919 232.915 379.509 242.1 379.063C234.97 378.741 228.251 377.133 223.104 374.166Z" fill="url(#paint9_linear_22_2624)"/>
<path opacity="0.5" d="M428.392 293.145L267.332 386.14C252.571 394.664 230.234 395.593 217.457 388.213L49.2134 291.073C43.0662 287.534 40.2785 282.709 40.6538 277.706H40.5823V284.586H40.6538C40.2964 289.571 43.084 294.396 49.2134 297.952L217.439 395.075C230.216 402.455 252.554 401.526 267.314 393.002L428.374 300.007C436.88 295.093 440.99 288.732 440.526 282.799V275.919C441.008 281.852 436.898 288.213 428.374 293.128L428.392 293.145Z" fill="url(#paint10_linear_22_2624)"/>
<path d="M399.175 283.979C401.016 285.033 401.016 286.766 399.175 287.821C397.335 288.875 394.368 288.875 392.528 287.821C390.687 286.766 390.687 285.051 392.528 283.979C394.368 282.924 397.335 282.924 399.175 283.979Z" fill="#FCCC6B"/>
<path d="M409.522 278.01C411.362 279.065 411.362 280.78 409.522 281.852C407.681 282.907 404.715 282.907 402.874 281.852C401.034 280.798 401.034 279.083 402.874 278.01C404.715 276.956 407.681 276.956 409.522 278.01Z" fill="#FCCC6B"/>
<path d="M419.886 272.024C421.727 273.078 421.727 274.793 419.886 275.866C418.046 276.92 415.079 276.92 413.239 275.866C411.398 274.811 411.398 273.096 413.239 272.024C415.079 270.969 418.046 270.969 419.886 272.024Z" fill="#FCCC6B"/>
<path opacity="0.5" d="M225.963 333.745L119.638 272.363C111.561 267.699 112.58 259.55 121.908 254.171L223.694 195.398C233.022 190.019 247.139 189.429 255.216 194.093L361.541 255.476C369.618 260.14 368.6 268.288 359.272 273.667L257.486 332.441C248.158 337.82 234.04 338.409 225.963 333.745Z" fill="#0B0244"/>
<path opacity="0.5" d="M440.526 263.678C440.579 263.088 440.579 262.481 440.526 261.891V174.168L301.159 174.794L263.722 153.189C250.945 145.809 228.608 146.738 213.848 155.262L179.055 175.348L40.5823 175.955V263.678H40.6538C40.2964 268.664 43.084 273.488 49.2134 277.045L217.439 374.167C230.216 381.547 252.554 380.618 267.314 372.094L428.374 279.1C436.04 274.668 440.133 269.075 440.526 263.66V263.678Z" fill="#5CFFF3"/>
<path d="M440.526 174.186V142.789H359.504L263.722 87.4816C250.945 80.1014 228.608 81.0306 213.848 89.5545L121.64 142.789H40.5823V175.973H40.6538C40.2964 180.958 43.084 185.783 49.2134 189.339L217.439 286.462C230.216 293.842 252.554 292.913 267.314 284.389L428.374 191.394C436.88 186.48 440.99 180.119 440.526 174.186Z" fill="#312A91"/>
<path opacity="0.5" d="M440.526 174.186V142.789H359.504L263.722 87.4816C250.945 80.1014 228.608 81.0306 213.848 89.5545L121.64 142.789H40.5823V175.973H40.6538C40.2964 180.958 43.084 185.783 49.2134 189.339L217.439 286.462C230.216 293.842 252.554 292.913 267.314 284.389L428.374 191.394C436.88 186.48 440.99 180.119 440.526 174.186Z" fill="url(#paint11_linear_22_2624)"/>
<path d="M263.74 87.4815C257.593 83.9254 249.248 82.3172 240.581 82.5316V291.394C249.945 291.161 259.648 288.802 267.332 284.389L428.392 191.394C436.898 186.48 441.008 180.118 440.544 174.186V142.788H359.522L263.74 87.4815Z" fill="url(#paint12_linear_22_2624)"/>
<path d="M217.439 253.277L49.2132 156.137C36.4363 148.757 38.0267 135.873 52.7872 127.349L213.865 34.3548C228.626 25.8309 250.945 24.9017 263.74 32.2819L431.966 129.404C444.743 136.784 443.152 149.668 428.392 158.192L267.332 251.187C252.571 259.711 230.234 260.64 217.457 253.26L217.439 253.277Z" fill="#312A91"/>
<path opacity="0.5" d="M217.439 253.277L49.2132 156.137C36.4363 148.757 38.0267 135.873 52.7872 127.349L213.865 34.3548C228.626 25.8309 250.945 24.9017 263.74 32.2819L431.966 129.404C444.743 136.784 443.152 149.668 428.392 158.192L267.332 251.187C252.571 259.711 230.234 260.64 217.457 253.26L217.439 253.277Z" fill="url(#paint13_linear_22_2624)"/>
<path opacity="0.5" d="M223.104 253.278L54.8599 156.138C42.0831 148.758 39.0273 137.911 58.4339 127.35L219.512 34.3554C226.767 30.156 235.863 27.8151 244.744 27.3862C234.183 26.9037 222.675 29.2625 213.865 34.3554L52.8049 127.35C38.0445 135.874 36.4362 148.758 49.231 156.138L217.457 253.26C223.962 257.013 232.914 258.603 242.099 258.156C234.969 257.835 228.25 256.227 223.104 253.26V253.278Z" fill="url(#paint14_linear_22_2624)"/>
<path opacity="0.5" d="M428.392 172.238L267.332 265.232C252.571 273.756 230.234 274.686 217.457 267.305L49.2134 170.165C43.0662 166.627 40.2785 161.802 40.6538 156.799H40.5823V163.679H40.6538C40.2964 168.682 43.084 173.489 49.2134 177.045L217.439 274.167C230.216 281.548 252.554 280.618 267.314 272.094L428.374 179.1C436.88 174.186 440.99 167.824 440.526 161.892V155.012C441.008 160.944 436.898 167.306 428.374 172.22L428.392 172.238Z" fill="url(#paint15_linear_22_2624)"/>
<path opacity="0.2" d="M227.214 149.811C230.716 151.831 230.716 155.101 227.214 157.12C223.711 159.139 218.065 159.139 214.562 157.12C211.06 155.101 211.06 151.831 214.562 149.811C218.065 147.792 223.711 147.792 227.214 149.811Z" fill="#5CFFF3"/>
<path opacity="0.6" d="M246.924 138.428C250.409 140.447 250.409 143.717 246.924 145.736C243.422 147.756 237.775 147.756 234.273 145.736C230.77 143.717 230.77 140.447 234.273 138.428C237.775 136.408 243.422 136.408 246.924 138.428Z" fill="#5CFFF3"/>
<path d="M266.617 127.063C270.12 129.083 270.12 132.353 266.617 134.372C263.115 136.391 257.468 136.391 253.965 134.372C250.481 132.353 250.481 129.083 253.965 127.063C257.468 125.044 263.115 125.044 266.617 127.063Z" fill="#5CFFF3"/>
<path opacity="0.5" d="M239.491 229.403C233.254 229.403 227.285 228.134 222.854 225.579L98.4623 153.76C93.9412 151.151 91.4395 147.47 91.4395 143.414C91.4395 138.607 94.9598 133.818 101.107 130.28L220.191 61.5167C231.431 55.0299 248.551 54.333 258.325 59.9799L382.717 131.799C387.238 134.407 389.74 138.089 389.74 142.145C389.74 146.952 386.219 151.741 380.072 155.279L260.988 224.042C254.859 227.581 246.978 229.403 239.491 229.403ZM224.105 223.381C233.183 228.635 249.158 227.938 259.719 221.844L378.803 153.081C384.129 150.008 387.202 146.005 387.202 142.145C387.202 139.036 385.165 136.141 381.466 133.996L257.074 62.1778C247.997 56.9241 232.021 57.621 221.46 63.7146L102.376 132.478C97.0327 135.551 93.977 139.536 93.977 143.414C93.977 146.523 96.0141 149.418 99.731 151.562L224.123 223.381H224.105Z" fill="#0B0244"/>
<path d="M238.758 278.366C231.914 278.366 225.391 276.99 220.513 274.167L7.39809 151.134C2.62686 148.382 0 144.557 0 140.358C0 135.319 3.78839 130.244 10.3823 126.438L217.511 6.85302C229.895 -0.294892 248.729 -1.08116 259.469 5.13752L472.584 128.189C477.355 130.941 479.982 134.765 479.982 138.964C479.982 144.004 476.194 149.079 469.6 152.885L262.453 272.469C255.681 276.383 246.978 278.384 238.74 278.384L238.758 278.366ZM241.242 1.72439C233.147 1.72439 224.587 3.69007 217.922 7.54994L10.7755 127.134C4.4317 130.798 0.80414 135.623 0.80414 140.358C0.80414 144.254 3.28804 147.828 7.79122 150.437L220.906 273.488C231.431 279.564 249.909 278.795 262.078 271.772L469.225 152.188C475.568 148.525 479.196 143.7 479.196 138.964C479.196 135.069 476.712 131.495 472.209 128.886L259.094 5.81657C254.323 3.06463 247.943 1.72439 241.242 1.72439Z" fill="#6EE8FC"/>
<path style="mix-blend-mode:lighten" d="M203.322 24.7405C203.322 33.6218 196.121 40.8233 187.24 40.8233C178.358 40.8233 171.157 33.6218 171.157 24.7405C171.157 15.8592 178.358 8.65771 187.24 8.65771C196.121 8.65771 203.322 15.8592 203.322 24.7405Z" fill="url(#paint16_radial_22_2624)"/>
<path d="M191.832 24.741C191.832 27.2785 189.777 29.3335 187.24 29.3335C184.702 29.3335 182.647 27.2785 182.647 24.741C182.647 22.2035 184.702 20.1484 187.24 20.1484C189.777 20.1484 191.832 22.2035 191.832 24.741Z" fill="#6EE8FC"/>
<path style="mix-blend-mode:lighten" d="M41.1361 118.557C41.1361 127.438 33.9345 134.64 25.0533 134.64C16.172 134.64 8.97046 127.438 8.97046 118.557C8.97046 109.676 16.172 102.474 25.0533 102.474C33.9345 102.474 41.1361 109.676 41.1361 118.557Z" fill="url(#paint17_radial_22_2624)"/>
<path d="M29.6458 118.557C29.6458 121.095 27.5907 123.15 25.0532 123.15C22.5157 123.15 20.4607 121.095 20.4607 118.557C20.4607 116.02 22.5157 113.965 25.0532 113.965C27.5907 113.965 29.6458 116.02 29.6458 118.557Z" fill="#6EE8FC"/>
<path style="mix-blend-mode:lighten" d="M393.171 205.815C393.171 214.696 385.969 221.898 377.088 221.898C368.207 221.898 361.005 214.696 361.005 205.815C361.005 196.934 368.207 189.732 377.088 189.732C385.969 189.732 393.171 196.934 393.171 205.815Z" fill="url(#paint18_radial_22_2624)"/>
<path d="M381.68 205.816C381.68 208.353 379.625 210.408 377.088 210.408C374.55 210.408 372.495 208.353 372.495 205.816C372.495 203.278 374.55 201.223 377.088 201.223C379.625 201.223 381.68 203.278 381.68 205.816Z" fill="#6EE8FC"/>
<path style="mix-blend-mode:lighten" d="M422.996 188.249C422.996 197.13 415.794 204.332 406.913 204.332C398.032 204.332 390.83 197.13 390.83 188.249C390.83 179.368 398.032 172.166 406.913 172.166C415.794 172.166 422.996 179.368 422.996 188.249Z" fill="url(#paint19_radial_22_2624)"/>
<path d="M411.487 188.249C411.487 190.787 409.432 192.842 406.895 192.842C404.357 192.842 402.302 190.787 402.302 188.249C402.302 185.712 404.357 183.657 406.895 183.657C409.432 183.657 411.487 185.712 411.487 188.249Z" fill="#6EE8FC"/>
<path style="mix-blend-mode:lighten" d="M452.82 170.951C452.82 179.833 445.618 187.034 436.737 187.034C427.856 187.034 420.654 179.833 420.654 170.951C420.654 162.07 427.856 154.869 436.737 154.869C445.618 154.869 452.82 162.07 452.82 170.951Z" fill="url(#paint20_radial_22_2624)"/>
<path d="M441.312 170.951C441.312 173.489 439.257 175.544 436.719 175.544C434.182 175.544 432.127 173.489 432.127 170.951C432.127 168.414 434.182 166.359 436.719 166.359C439.257 166.359 441.312 168.414 441.312 170.951Z" fill="#6EE8FC"/>
</g>
<defs>
<radialGradient id="paint0_radial_22_2624" cx="0" cy="0" r="1" gradientUnits="userSpaceOnUse" gradientTransform="translate(444.158 418.891) rotate(30) scale(143.87 125.167)">
<stop stop-color="#42E8E0"/>
<stop offset="0.01" stop-color="#3FDED8"/>
<stop offset="0.09" stop-color="#34AFB3"/>
<stop offset="0.17" stop-color="#2A8593"/>
<stop offset="0.26" stop-color="#216178"/>
<stop offset="0.35" stop-color="#1A4561"/>
<stop offset="0.44" stop-color="#152E50"/>
<stop offset="0.54" stop-color="#111F44"/>
<stop offset="0.66" stop-color="#0F153D"/>
<stop offset="0.82" stop-color="#0F133B"/>
</radialGradient>
<radialGradient id="paint1_radial_22_2624" cx="0" cy="0" r="1" gradientUnits="userSpaceOnUse" gradientTransform="translate(187.24 270.522) scale(16.0828)">
<stop stop-color="#42E8E0"/>
<stop offset="0.02" stop-color="#3FD8D6"/>
<stop offset="0.1" stop-color="#35A9B9"/>
<stop offset="0.18" stop-color="#2D7FA0"/>
<stop offset="0.26" stop-color="#275B8A"/>
<stop offset="0.35" stop-color="#213F79"/>
<stop offset="0.44" stop-color="#1D286B"/>
<stop offset="0.54" stop-color="#1A1962"/>
<stop offset="0.66" stop-color="#180F5C"/>
<stop offset="0.82" stop-color="#180D5B"/>
</radialGradient>
<radialGradient id="paint2_radial_22_2624" cx="0" cy="0" r="1" gradientUnits="userSpaceOnUse" gradientTransform="translate(25.0533 364.356) scale(16.0828)">
<stop stop-color="#42E8E0"/>
<stop offset="0.02" stop-color="#3FD8D6"/>
<stop offset="0.1" stop-color="#35A9B9"/>
<stop offset="0.18" stop-color="#2D7FA0"/>
<stop offset="0.26" stop-color="#275B8A"/>
<stop offset="0.35" stop-color="#213F79"/>
<stop offset="0.44" stop-color="#1D286B"/>
<stop offset="0.54" stop-color="#1A1962"/>
<stop offset="0.66" stop-color="#180F5C"/>
<stop offset="0.82" stop-color="#180D5B"/>
</radialGradient>
<radialGradient id="paint3_radial_22_2624" cx="0" cy="0" r="1" gradientUnits="userSpaceOnUse" gradientTransform="translate(377.088 451.614) scale(16.0828 16.0828)">
<stop stop-color="#42E8E0"/>
<stop offset="0.01" stop-color="#3FDED8"/>
<stop offset="0.09" stop-color="#34AFB3"/>
<stop offset="0.17" stop-color="#2A8593"/>
<stop offset="0.26" stop-color="#216178"/>
<stop offset="0.35" stop-color="#1A4561"/>
<stop offset="0.44" stop-color="#152E50"/>
<stop offset="0.54" stop-color="#111F44"/>
<stop offset="0.66" stop-color="#0F153D"/>
<stop offset="0.82" stop-color="#0F133B"/>
</radialGradient>
<radialGradient id="paint4_radial_22_2624" cx="0" cy="0" r="1" gradientUnits="userSpaceOnUse" gradientTransform="translate(406.913 434.048) scale(16.0828)">
<stop stop-color="#42E8E0"/>
<stop offset="0.01" stop-color="#3FDED8"/>
<stop offset="0.09" stop-color="#34AFB3"/>
<stop offset="0.17" stop-color="#2A8593"/>
<stop offset="0.26" stop-color="#216178"/>
<stop offset="0.35" stop-color="#1A4561"/>
<stop offset="0.44" stop-color="#152E50"/>
<stop offset="0.54" stop-color="#111F44"/>
<stop offset="0.66" stop-color="#0F153D"/>
<stop offset="0.82" stop-color="#0F133B"/>
</radialGradient>
<radialGradient id="paint5_radial_22_2624" cx="0" cy="0" r="1" gradientUnits="userSpaceOnUse" gradientTransform="translate(436.719 416.733) scale(16.0828)">
<stop stop-color="#42E8E0"/>
<stop offset="0.01" stop-color="#3FDED8"/>
<stop offset="0.09" stop-color="#34AFB3"/>
<stop offset="0.17" stop-color="#2A8593"/>
<stop offset="0.26" stop-color="#216178"/>
<stop offset="0.35" stop-color="#1A4561"/>
<stop offset="0.44" stop-color="#152E50"/>
<stop offset="0.54" stop-color="#111F44"/>
<stop offset="0.66" stop-color="#0F153D"/>
<stop offset="0.82" stop-color="#0F133B"/>
</radialGradient>
<linearGradient id="paint6_linear_22_2624" x1="-47.8195" y1="307.87" x2="352.16" y2="307.87" gradientUnits="userSpaceOnUse">
<stop stop-color="#42E8E0"/>
<stop offset="0.1" stop-color="#3CC9CD"/>
<stop offset="0.34" stop-color="#2F87A5"/>
<stop offset="0.56" stop-color="#255285"/>
<stop offset="0.75" stop-color="#1E2C6E"/>
<stop offset="0.91" stop-color="#191560"/>
<stop offset="1" stop-color="#180D5B"/>
</linearGradient>
<linearGradient id="paint7_linear_22_2624" x1="240.581" y1="307.851" x2="440.561" y2="307.851" gradientUnits="userSpaceOnUse">
<stop stop-color="#2B237C"/>
<stop offset="1" stop-color="#180D5B"/>
</linearGradient>
<linearGradient id="paint8_linear_22_2624" x1="40.5823" y1="263.678" x2="440.597" y2="263.678" gradientUnits="userSpaceOnUse">
<stop stop-color="#42E8E0"/>
<stop offset="0.1" stop-color="#3CC9CD"/>
<stop offset="0.34" stop-color="#2F87A5"/>
<stop offset="0.56" stop-color="#255285"/>
<stop offset="0.75" stop-color="#1E2C6E"/>
<stop offset="0.91" stop-color="#191560"/>
<stop offset="1" stop-color="#180D5B"/>
</linearGradient>
<linearGradient id="paint9_linear_22_2624" x1="40.5822" y1="263.695" x2="244.744" y2="263.695" gradientUnits="userSpaceOnUse">
<stop stop-color="#42E8E0"/>
<stop offset="0.1" stop-color="#3CC9CD"/>
<stop offset="0.34" stop-color="#2F87A5"/>
<stop offset="0.56" stop-color="#255285"/>
<stop offset="0.75" stop-color="#1E2C6E"/>
<stop offset="0.91" stop-color="#191560"/>
<stop offset="1" stop-color="#180D5B"/>
</linearGradient>
<linearGradient id="paint10_linear_22_2624" x1="94.9957" y1="380.082" x2="429.804" y2="161.231" gradientUnits="userSpaceOnUse">
<stop stop-color="#42E8E0"/>
<stop offset="0.1" stop-color="#3CC9CD"/>
<stop offset="0.34" stop-color="#2F87A5"/>
<stop offset="0.56" stop-color="#255285"/>
<stop offset="0.75" stop-color="#1E2C6E"/>
<stop offset="0.91" stop-color="#191560"/>
<stop offset="1" stop-color="#180D5B"/>
</linearGradient>
<linearGradient id="paint11_linear_22_2624" x1="1.78569e-05" y1="186.963" x2="1.787" y2="186.963" gradientUnits="userSpaceOnUse">
<stop stop-color="#42E8E0"/>
<stop offset="0.1" stop-color="#3CC9CD"/>
<stop offset="0.34" stop-color="#2F87A5"/>
<stop offset="0.56" stop-color="#255285"/>
<stop offset="0.75" stop-color="#1E2C6E"/>
<stop offset="0.91" stop-color="#191560"/>
<stop offset="1" stop-color="#180D5B"/>
</linearGradient>
<linearGradient id="paint12_linear_22_2624" x1="1.12043e-05" y1="186.963" x2="1.78699" y2="186.963" gradientUnits="userSpaceOnUse">
<stop stop-color="#2B237C"/>
<stop offset="1" stop-color="#180D5B"/>
</linearGradient>
<linearGradient id="paint13_linear_22_2624" x1="40.5821" y1="142.789" x2="440.597" y2="142.789" gradientUnits="userSpaceOnUse">
<stop stop-color="#42E8E0"/>
<stop offset="0.1" stop-color="#3CC9CD"/>
<stop offset="0.34" stop-color="#2F87A5"/>
<stop offset="0.56" stop-color="#255285"/>
<stop offset="0.75" stop-color="#1E2C6E"/>
<stop offset="0.91" stop-color="#191560"/>
<stop offset="1" stop-color="#180D5B"/>
</linearGradient>
<linearGradient id="paint14_linear_22_2624" x1="40.582" y1="142.789" x2="244.744" y2="142.789" gradientUnits="userSpaceOnUse">
<stop stop-color="#42E8E0"/>
<stop offset="0.1" stop-color="#3CC9CD"/>
<stop offset="0.34" stop-color="#2F87A5"/>
<stop offset="0.56" stop-color="#255285"/>
<stop offset="0.75" stop-color="#1E2C6E"/>
<stop offset="0.91" stop-color="#191560"/>
<stop offset="1" stop-color="#180D5B"/>
</linearGradient>
<linearGradient id="paint15_linear_22_2624" x1="94.9957" y1="259.175" x2="429.804" y2="40.3413" gradientUnits="userSpaceOnUse">
<stop stop-color="#42E8E0"/>
<stop offset="0.1" stop-color="#3CC9CD"/>
<stop offset="0.34" stop-color="#2F87A5"/>
<stop offset="0.56" stop-color="#255285"/>
<stop offset="0.75" stop-color="#1E2C6E"/>
<stop offset="0.91" stop-color="#191560"/>
<stop offset="1" stop-color="#180D5B"/>
</linearGradient>
<radialGradient id="paint16_radial_22_2624" cx="0" cy="0" r="1" gradientUnits="userSpaceOnUse" gradientTransform="translate(187.24 24.7405) scale(16.0828)">
<stop stop-color="#42E8E0"/>
<stop offset="0.01" stop-color="#3FDED8"/>
<stop offset="0.09" stop-color="#34AFB3"/>
<stop offset="0.17" stop-color="#2A8593"/>
<stop offset="0.26" stop-color="#216178"/>
<stop offset="0.35" stop-color="#1A4561"/>
<stop offset="0.44" stop-color="#152E50"/>
<stop offset="0.54" stop-color="#111F44"/>
<stop offset="0.66" stop-color="#0F153D"/>
<stop offset="0.82" stop-color="#0F133B"/>
</radialGradient>
<radialGradient id="paint17_radial_22_2624" cx="0" cy="0" r="1" gradientUnits="userSpaceOnUse" gradientTransform="translate(25.0533 118.557) scale(16.0828)">
<stop stop-color="#42E8E0"/>
<stop offset="0.01" stop-color="#3FDED8"/>
<stop offset="0.09" stop-color="#34AFB3"/>
<stop offset="0.17" stop-color="#2A8593"/>
<stop offset="0.26" stop-color="#216178"/>
<stop offset="0.35" stop-color="#1A4561"/>
<stop offset="0.44" stop-color="#152E50"/>
<stop offset="0.54" stop-color="#111F44"/>
<stop offset="0.66" stop-color="#0F153D"/>
<stop offset="0.82" stop-color="#0F133B"/>
</radialGradient>
<radialGradient id="paint18_radial_22_2624" cx="0" cy="0" r="1" gradientUnits="userSpaceOnUse" gradientTransform="translate(377.088 205.815) scale(16.0828)">
<stop stop-color="#42E8E0"/>
<stop offset="0.01" stop-color="#3FDED8"/>
<stop offset="0.09" stop-color="#34AFB3"/>
<stop offset="0.17" stop-color="#2A8593"/>
<stop offset="0.26" stop-color="#216178"/>
<stop offset="0.35" stop-color="#1A4561"/>
<stop offset="0.44" stop-color="#152E50"/>
<stop offset="0.54" stop-color="#111F44"/>
<stop offset="0.66" stop-color="#0F153D"/>
<stop offset="0.82" stop-color="#0F133B"/>
</radialGradient>
<radialGradient id="paint19_radial_22_2624" cx="0" cy="0" r="1" gradientUnits="userSpaceOnUse" gradientTransform="translate(406.913 188.249) scale(16.0828)">
<stop stop-color="#42E8E0"/>
<stop offset="0.01" stop-color="#3FDED8"/>
<stop offset="0.09" stop-color="#34AFB3"/>
<stop offset="0.17" stop-color="#2A8593"/>
<stop offset="0.26" stop-color="#216178"/>
<stop offset="0.35" stop-color="#1A4561"/>
<stop offset="0.44" stop-color="#152E50"/>
<stop offset="0.54" stop-color="#111F44"/>
<stop offset="0.66" stop-color="#0F153D"/>
<stop offset="0.82" stop-color="#0F133B"/>
</radialGradient>
<radialGradient id="paint20_radial_22_2624" cx="0" cy="0" r="1" gradientUnits="userSpaceOnUse" gradientTransform="translate(436.719 170.951) scale(16.0828)">
<stop stop-color="#42E8E0"/>
<stop offset="0.01" stop-color="#3FDED8"/>
<stop offset="0.09" stop-color="#34AFB3"/>
<stop offset="0.17" stop-color="#2A8593"/>
<stop offset="0.26" stop-color="#216178"/>
<stop offset="0.35" stop-color="#1A4561"/>
<stop offset="0.44" stop-color="#152E50"/>
<stop offset="0.54" stop-color="#111F44"/>
<stop offset="0.66" stop-color="#0F153D"/>
<stop offset="0.82" stop-color="#0F133B"/>
</radialGradient>
<clipPath id="clip0_22_2624">
<rect width="480" height="523.227" fill="white" transform="translate(0 0.937988)"/>
</clipPath>
</defs>
</svg>
